<?xml version="1.0" encoding="UTF-8"?>
<svg version="1.1" xmlns="http://www.w3.org/2000/svg" width="4096" height="3606">
<path d="M0 0 C68.68171449 -0.03430608 137.36343 -0.06610129 206.04515076 -0.08468628 C207.57182068 -0.08510045 207.57182068 -0.08510045 209.12933242 -0.08552299 C231.25259509 -0.09150989 253.37585785 -0.0970501 275.49912075 -0.10213066 C286.34959289 -0.10462516 297.200065 -0.10721829 308.05053711 -0.10986328 C309.13024453 -0.1101248 310.20995195 -0.11038632 311.32237778 -0.11065576 C346.26950992 -0.11916655 381.21663555 -0.13418024 416.16376375 -0.15259444 C452.09994477 -0.17149523 488.03612219 -0.18377913 523.97230809 -0.18782998 C529.05715557 -0.18840622 534.14200304 -0.1890575 539.22685051 -0.18975449 C540.72789149 -0.18995676 540.72789149 -0.18995676 542.25925653 -0.19016311 C558.31693663 -0.19251935 574.37460556 -0.20177596 590.43228113 -0.21366407 C606.606375 -0.22548925 622.7804579 -0.22992334 638.95455594 -0.22700275 C648.54394277 -0.22549064 658.13328917 -0.2294554 667.72266864 -0.24159509 C674.15424974 -0.24917495 680.58580482 -0.249272 687.01738783 -0.24366363 C690.66541105 -0.24068557 694.31335863 -0.24059798 697.96137328 -0.24976636 C723.11660261 -0.30924343 748.39487864 0.39481716 773.3125 4.125 C774.02093048 4.22948456 774.72936096 4.33396912 775.45925903 4.44161987 C834.93329982 13.30622586 893.68775627 35.39126636 943 70 C943.53995605 70.37688965 944.07991211 70.7537793 944.63623047 71.14208984 C958.35742824 80.73881837 971.43101606 90.93538278 984 102 C984.90492188 102.79148437 985.80984375 103.58296875 986.7421875 104.3984375 C993.41692648 110.37668197 999.79149163 116.66407976 1006.14993286 122.97470093 C1007.15758155 123.97430971 1008.16670601 124.97243355 1009.17745972 125.96890259 C1015.92388847 132.63004574 1022.09750994 139.57877167 1028 147 C1029.55925805 148.83609142 1031.12103933 150.67004964 1032.6875 152.5 C1052.56267302 176.35638003 1067.80560746 202.86550081 1082.88037109 229.88305664 C1086.54702691 236.44298795 1090.27867765 242.95550097 1094.11279297 249.41870117 C1097.85416457 255.72972917 1101.52470963 262.08058723 1105.1875 268.4375 C1105.82550537 269.54472412 1106.46351074 270.65194824 1107.12084961 271.79272461 C1108.42889477 274.06337068 1109.73675448 276.33412358 1111.04443359 278.60498047 C1114.19332056 284.07169984 1117.34688036 289.53572129 1120.5 295 C1121.7513067 297.16926817 1123.00260878 299.338539 1124.25390625 301.5078125 C1126.73930902 305.81601651 1129.22641977 310.12322789 1131.71484375 314.4296875 C1138.53502637 326.23629484 1145.3232326 338.06027 1152.07736206 349.90472412 C1156.67394223 357.96263212 1161.3132416 365.99417786 1166 374 C1171.0318069 382.59522672 1176.00389072 391.2231213 1180.9375 399.875 C1187.96603507 412.20025196 1195.04240434 424.49722067 1202.14111328 436.78222656 C1205.26324605 442.18670645 1208.38141204 447.59347412 1211.5 453 C1212.74998122 455.1666775 1213.99998121 457.33334417 1215.25 459.5 C1217.75 463.83333333 1220.25 468.16666667 1222.75 472.5 C1223.36866943 473.57233887 1223.98733887 474.64467773 1224.62475586 475.74951172 C1225.8756448 477.91776264 1227.12645852 480.08605697 1228.37719727 482.25439453 C1231.48798335 487.64717915 1234.60004238 493.03922093 1237.71484375 498.4296875 C1244.53502637 510.23629484 1251.3232326 522.06027 1258.07736206 533.90472412 C1262.67394223 541.96263212 1267.3132416 549.99417786 1272 558 C1277.0318069 566.59522672 1282.00389072 575.2231213 1286.9375 583.875 C1293.96603507 596.20025196 1301.04240434 608.49722067 1308.14111328 620.78222656 C1311.26324605 626.18670645 1314.38141204 631.59347412 1317.5 637 C1318.74998122 639.1666775 1319.99998121 641.33334417 1321.25 643.5 C1328.75 656.5 1336.25 669.5 1343.75 682.5 C1344.36866943 683.57233887 1344.98733887 684.64467773 1345.62475586 685.74951172 C1346.8756448 687.91776264 1348.12645852 690.08605697 1349.37719727 692.25439453 C1352.48798335 697.64717915 1355.60004238 703.03922093 1358.71484375 708.4296875 C1365.53502637 720.23629484 1372.3232326 732.06027 1379.07736206 743.90472412 C1383.67394223 751.96263212 1388.3132416 759.99417786 1393 768 C1398.0318069 776.59522672 1403.00389072 785.2231213 1407.9375 793.875 C1414.96603507 806.20025196 1422.04240434 818.49722067 1429.14111328 830.78222656 C1432.26324605 836.18670645 1435.38141204 841.59347412 1438.5 847 C1439.74998122 849.1666775 1440.99998121 851.33334417 1442.25 853.5 C1449.75 866.5 1457.25 879.5 1464.75 892.5 C1465.36866943 893.57233887 1465.98733887 894.64467773 1466.62475586 895.74951172 C1467.8756448 897.91776264 1469.12645852 900.08605697 1470.37719727 902.25439453 C1473.48798335 907.64717915 1476.60004238 913.03922093 1479.71484375 918.4296875 C1486.53502637 930.23629484 1493.3232326 942.06027 1500.07736206 953.90472412 C1504.67394223 961.96263212 1509.3132416 969.99417786 1514 978 C1519.0318069 986.59522672 1524.00389072 995.2231213 1528.9375 1003.875 C1535.96603507 1016.20025196 1543.04240434 1028.49722067 1550.14111328 1040.78222656 C1553.26324605 1046.18670645 1556.38141204 1051.59347412 1559.5 1057 C1560.74998122 1059.1666775 1561.99998121 1061.33334417 1563.25 1063.5 C1565.75 1067.83333333 1568.25 1072.16666667 1570.75 1076.5 C1571.36866943 1077.57233887 1571.98733887 1078.64467773 1572.62475586 1079.74951172 C1573.8756448 1081.91776264 1575.12645852 1084.08605697 1576.37719727 1086.25439453 C1579.48798335 1091.64717915 1582.60004238 1097.03922093 1585.71484375 1102.4296875 C1592.53502637 1114.23629484 1599.3232326 1126.06027 1606.07736206 1137.90472412 C1610.67394223 1145.96263212 1615.3132416 1153.99417786 1620 1162 C1625.0318069 1170.59522672 1630.00389072 1179.2231213 1634.9375 1187.875 C1641.96603507 1200.20025196 1649.04240434 1212.49722067 1656.14111328 1224.78222656 C1659.26324605 1230.18670645 1662.38141204 1235.59347412 1665.5 1241 C1666.74998122 1243.1666775 1667.99998121 1245.33334417 1669.25 1247.5 C1676.75 1260.5 1684.25 1273.5 1691.75 1286.5 C1692.36866943 1287.57233887 1692.98733887 1288.64467773 1693.62475586 1289.74951172 C1694.8756448 1291.91776264 1696.12645852 1294.08605697 1697.37719727 1296.25439453 C1700.48798335 1301.64717915 1703.60004238 1307.03922093 1706.71484375 1312.4296875 C1713.53502637 1324.23629484 1720.3232326 1336.06027 1727.07736206 1347.90472412 C1731.67394223 1355.96263212 1736.3132416 1363.99417786 1741 1372 C1746.0318069 1380.59522672 1751.00389072 1389.2231213 1755.9375 1397.875 C1762.96603507 1410.20025196 1770.04240434 1422.49722067 1777.14111328 1434.78222656 C1780.26324605 1440.18670645 1783.38141204 1445.59347412 1786.5 1451 C1787.74998122 1453.1666775 1788.99998121 1455.33334417 1790.25 1457.5 C1792.75 1461.83333333 1795.25 1466.16666667 1797.75 1470.5 C1798.36866943 1471.57233887 1798.98733887 1472.64467773 1799.62475586 1473.74951172 C1800.8756448 1475.91776264 1802.12645852 1478.08605697 1803.37719727 1480.25439453 C1806.48798335 1485.64717915 1809.60004238 1491.03922093 1812.71484375 1496.4296875 C1819.53502637 1508.23629484 1826.3232326 1520.06027 1833.07736206 1531.90472412 C1837.67394223 1539.96263212 1842.3132416 1547.99417786 1847 1556 C1852.0318069 1564.59522672 1857.00389072 1573.2231213 1861.9375 1581.875 C1868.96603507 1594.20025196 1876.04240434 1606.49722067 1883.14111328 1618.78222656 C1886.26324605 1624.18670645 1889.38141204 1629.59347412 1892.5 1635 C1893.74998122 1637.1666775 1894.99998121 1639.33334417 1896.25 1641.5 C1903.75 1654.5 1911.25 1667.5 1918.75 1680.5 C1919.36866943 1681.57233887 1919.98733887 1682.64467773 1920.62475586 1683.74951172 C1921.8756448 1685.91776264 1923.12645852 1688.08605697 1924.37719727 1690.25439453 C1927.48798335 1695.64717915 1930.60004238 1701.03922093 1933.71484375 1706.4296875 C1940.53502637 1718.23629484 1947.3232326 1730.06027 1954.07736206 1741.90472412 C1958.67394223 1749.96263212 1963.3132416 1757.99417786 1968 1766 C1973.0318069 1774.59522672 1978.00389072 1783.2231213 1982.9375 1791.875 C1989.96603507 1804.20025196 1997.04240434 1816.49722067 2004.14111328 1828.78222656 C2007.26324605 1834.18670645 2010.38141204 1839.59347412 2013.5 1845 C2014.74998122 1847.1666775 2015.99998121 1849.33334417 2017.25 1851.5 C2024.75 1864.5 2032.25 1877.5 2039.75 1890.5 C2040.36866943 1891.57233887 2040.98733887 1892.64467773 2041.62475586 1893.74951172 C2042.8756448 1895.91776264 2044.12645852 1898.08605697 2045.37719727 1900.25439453 C2048.48798335 1905.64717915 2051.60004238 1911.03922093 2054.71484375 1916.4296875 C2061.53502637 1928.23629484 2068.3232326 1940.06027 2075.07736206 1951.90472412 C2079.67394223 1959.96263212 2084.3132416 1967.99417786 2089 1976 C2094.0318069 1984.59522672 2099.00389072 1993.2231213 2103.9375 2001.875 C2110.96603507 2014.20025196 2118.04240434 2026.49722067 2125.14111328 2038.78222656 C2128.26324605 2044.18670645 2131.38141204 2049.59347412 2134.5 2055 C2135.74998122 2057.1666775 2136.99998121 2059.33334417 2138.25 2061.5 C2140.75 2065.83333333 2143.25 2070.16666667 2145.75 2074.5 C2146.36866943 2075.57233887 2146.98733887 2076.64467773 2147.62475586 2077.74951172 C2148.8756448 2079.91776264 2150.12645852 2082.08605697 2151.37719727 2084.25439453 C2154.48798335 2089.64717915 2157.60004238 2095.03922093 2160.71484375 2100.4296875 C2167.53502637 2112.23629484 2174.3232326 2124.06027 2181.07736206 2135.90472412 C2185.67394223 2143.96263212 2190.3132416 2151.99417786 2195 2160 C2200.0318069 2168.59522672 2205.00389072 2177.2231213 2209.9375 2185.875 C2216.96603507 2198.20025196 2224.04240434 2210.49722067 2231.14111328 2222.78222656 C2234.26324605 2228.18670645 2237.38141204 2233.59347412 2240.5 2239 C2241.74998122 2241.1666775 2242.99998121 2243.33334417 2244.25 2245.5 C2251.75 2258.5 2259.25 2271.5 2266.75 2284.5 C2267.36866943 2285.57233887 2267.98733887 2286.64467773 2268.62475586 2287.74951172 C2269.8756448 2289.91776264 2271.12645852 2292.08605697 2272.37719727 2294.25439453 C2275.48798335 2299.64717915 2278.60004238 2305.03922093 2281.71484375 2310.4296875 C2288.53502637 2322.23629484 2295.3232326 2334.06027 2302.07736206 2345.90472412 C2306.67394223 2353.96263212 2311.3132416 2361.99417786 2316 2370 C2321.0318069 2378.59522672 2326.00389072 2387.2231213 2330.9375 2395.875 C2337.96603507 2408.20025196 2345.04240434 2420.49722067 2352.14111328 2432.78222656 C2355.26324605 2438.18670645 2358.38141204 2443.59347412 2361.5 2449 C2362.74998122 2451.1666775 2363.99998121 2453.33334417 2365.25 2455.5 C2387.75000001 2494.50000001 2387.75000001 2494.50000001 2389.62524414 2497.75048828 C2390.87435518 2499.91557071 2392.12354129 2502.08060982 2393.37280273 2504.24560547 C2396.51202309 2509.68615706 2399.64990563 2515.12747216 2402.78515625 2520.5703125 C2408.96054788 2531.2884019 2415.1479573 2541.99931756 2421.375 2552.6875 C2421.96087891 2553.69312988 2422.54675781 2554.69875977 2423.15039062 2555.73486328 C2425.89777827 2560.43941219 2428.66811527 2565.12598738 2431.50976562 2569.77416992 C2467.64322905 2629.01059223 2489.96551206 2699.43124475 2490.203125 2769.15234375 C2490.20595238 2769.81122652 2490.20877975 2770.47010929 2490.21169281 2771.14895821 C2490.2265783 2774.65131125 2490.23586891 2778.15362441 2490.24023438 2781.65600586 C2490.24457248 2784.48003389 2490.25829586 2787.30374835 2490.28125 2790.12768555 C2490.73810499 2847.56138811 2478.14306003 2900.29837642 2453 2952 C2452.69431091 2952.62986816 2452.38862183 2953.25973633 2452.07366943 2953.90869141 C2444.21147655 2970.09446995 2436.07087948 2986.0458513 2427.07421875 3001.63671875 C2423.96962094 3007.01717363 2421.01042172 3012.47009109 2418.0625 3017.9375 C2412.22074418 3028.72687518 2406.03907465 3039.3038058 2399.82519531 3049.88183594 C2396.71301656 3055.19868279 2393.63779124 3060.53675861 2390.5625 3065.875 C2389.94012451 3066.95491211 2389.31774902 3068.03482422 2388.67651367 3069.14746094 C2387.41454065 3071.33746549 2386.15274081 3073.52756984 2384.89111328 3075.71777344 C2381.13971976 3082.22871257 2377.38309006 3088.73663194 2373.62744141 3095.24511719 C2370.48817754 3100.68585336 2367.35018503 3106.12731477 2364.21484375 3111.5703125 C2357.59777108 3123.0544882 2350.95366023 3134.52196894 2344.26708984 3145.96582031 C2338.10080946 3156.52620282 2331.9950405 3167.12126766 2325.89111328 3177.71777344 C2322.76319852 3183.14659942 2319.63141552 3188.57319281 2316.5 3194 C2315.24998121 3196.16665583 2313.99998122 3198.3333225 2312.75 3200.5 C2310.25 3204.83333333 2307.75 3209.16666667 2305.25 3213.5 C2304.63116943 3214.57266113 2304.01233887 3215.64532227 2303.37475586 3216.75048828 C2302.12564482 3218.91557071 2300.87645871 3221.08060982 2299.62719727 3223.24560547 C2296.48797691 3228.68615706 2293.35009437 3234.12747216 2290.21484375 3239.5703125 C2283.59777108 3251.0544882 2276.95366023 3262.52196894 2270.26708984 3273.96582031 C2264.10080946 3284.52620282 2257.9950405 3295.12126766 2251.89111328 3305.71777344 C2248.13971976 3312.22871257 2244.38309006 3318.73663194 2240.62744141 3325.24511719 C2237.48817754 3330.68585336 2234.35018503 3336.12731477 2231.21484375 3341.5703125 C2224.59777108 3353.0544882 2217.95366023 3364.52196894 2211.26708984 3375.96582031 C2205.10080946 3386.52620282 2198.9950405 3397.12126766 2192.89111328 3407.71777344 C2189.76319852 3413.14659942 2186.63141552 3418.57319281 2183.5 3424 C2182.24998121 3426.16665583 2180.99998122 3428.3333225 2179.75 3430.5 C2177.25 3434.83333333 2174.75 3439.16666667 2172.25 3443.5 C2171.63116943 3444.57266113 2171.01233887 3445.64532227 2170.37475586 3446.75048828 C2169.12564482 3448.91557071 2167.87645871 3451.08060982 2166.62719727 3453.24560547 C2163.48797691 3458.68615706 2160.35009437 3464.12747216 2157.21484375 3469.5703125 C2150.59777108 3481.0544882 2143.95366023 3492.52196894 2137.26708984 3503.96582031 C2131.10080946 3514.52620282 2124.9950405 3525.12126766 2118.89111328 3535.71777344 C2115.14511648 3542.21934599 2111.3947381 3548.71839431 2107.64282227 3555.21655273 C2104.75036587 3560.22723556 2101.86073806 3565.2394688 2098.98303223 3570.25863647 C2097.97451686 3572.01728749 2096.9649523 3573.77533209 2095.95507812 3575.53320312 C2094.69649482 3577.72472231 2093.43983013 3579.91734504 2092.18554688 3582.11132812 C2088.30468668 3588.86272402 2084.23641368 3595.46591135 2080 3602 C2077.34434213 3599.60030318 2075.72001447 3597.03555811 2073.953125 3593.93359375 C2073.06850586 3592.38961914 2073.06850586 3592.38961914 2072.16601562 3590.81445312 C2071.53373047 3589.70005859 2070.90144531 3588.58566406 2070.25 3587.4375 C2069.58058653 3586.26598539 2068.91065574 3585.09476624 2068.24023438 3583.92382812 C2066.84760003 3581.49056166 2065.45720253 3579.05603768 2064.06835938 3576.62060547 C2060.89970234 3571.06842407 2057.69820559 3565.53519338 2054.5 3560 C2053.24984475 3557.83342291 2051.99984527 3555.66675593 2050.75 3553.5 C2050.13125 3552.4275 2049.5125 3551.355 2048.875 3550.25 C1968.25 3410.5 1968.25 3410.5 1966.37475586 3407.24951172 C1965.12564482 3405.08442929 1963.87645871 3402.91939018 1962.62719727 3400.75439453 C1959.48797691 3395.31384294 1956.35009437 3389.87252784 1953.21484375 3384.4296875 C1947.19252671 3373.97793801 1941.15330663 3363.53700452 1935.0625 3353.125 C1929.64078822 3343.85500223 1924.29795085 3334.54168248 1918.98077393 3325.21154785 C1913.77954871 3316.0871716 1908.51972122 3306.99867226 1903.21655273 3297.93310547 C1897.06233258 3287.40915375 1890.97630004 3276.84619863 1884.89111328 3266.28222656 C1881.76319852 3260.85340058 1878.63141552 3255.42680719 1875.5 3250 C1874.24998121 3247.83334417 1872.99998122 3245.6666775 1871.75 3243.5 C1871.13125 3242.4275 1870.5125 3241.355 1869.875 3240.25 C1789.25 3100.5 1789.25 3100.5 1787.37475586 3097.24951172 C1786.12564482 3095.08442929 1784.87645871 3092.91939018 1783.62719727 3090.75439453 C1780.48797691 3085.31384294 1777.35009437 3079.87252784 1774.21484375 3074.4296875 C1768.19252671 3063.97793801 1762.15330663 3053.53700452 1756.0625 3043.125 C1750.64078822 3033.85500223 1745.29795085 3024.54168248 1739.98077393 3015.21154785 C1734.77954871 3006.0871716 1729.51972122 2996.99867226 1724.21655273 2987.93310547 C1718.06233258 2977.40915375 1711.97630004 2966.84619863 1705.89111328 2956.28222656 C1702.76319852 2950.85340058 1699.63141552 2945.42680719 1696.5 2940 C1695.24998121 2937.83334417 1693.99998122 2935.6666775 1692.75 2933.5 C1692.13125 2932.4275 1691.5125 2931.355 1690.875 2930.25 C1595.25000001 2764.50000002 1595.25000001 2764.50000002 1593.37475586 2761.24951172 C1592.12564482 2759.08442929 1590.87645871 2756.91939018 1589.62719727 2754.75439453 C1586.48797691 2749.31384294 1583.35009437 2743.87252784 1580.21484375 2738.4296875 C1574.19252671 2727.97793801 1568.15330663 2717.53700452 1562.0625 2707.125 C1556.64078822 2697.85500223 1551.29795085 2688.54168248 1545.98077393 2679.21154785 C1540.77954871 2670.0871716 1535.51972122 2660.99867226 1530.21655273 2651.93310547 C1524.06233258 2641.40915375 1517.97630004 2630.84619863 1511.89111328 2620.28222656 C1508.76319852 2614.85340058 1505.63141552 2609.42680719 1502.5 2604 C1501.24998121 2601.83334417 1499.99998122 2599.6666775 1498.75 2597.5 C1498.13125 2596.4275 1497.5125 2595.355 1496.875 2594.25 C1416.25 2454.5 1416.25 2454.5 1414.37475586 2451.24951172 C1413.12564482 2449.08442929 1411.87645871 2446.91939018 1410.62719727 2444.75439453 C1407.48797691 2439.31384294 1404.35009437 2433.87252784 1401.21484375 2428.4296875 C1395.19252671 2417.97793801 1389.15330663 2407.53700452 1383.0625 2397.125 C1377.64078822 2387.85500223 1372.29795085 2378.54168248 1366.98077393 2369.21154785 C1361.77954871 2360.0871716 1356.51972122 2350.99867226 1351.21655273 2341.93310547 C1345.06233258 2331.40915375 1338.97630004 2320.84619863 1332.89111328 2310.28222656 C1329.76319852 2304.85340058 1326.63141552 2299.42680719 1323.5 2294 C1322.24998121 2291.83334417 1320.99998122 2289.6666775 1319.75 2287.5 C1319.13125 2286.4275 1318.5125 2285.355 1317.875 2284.25 C1237.25 2144.5 1237.25 2144.5 1235.37475586 2141.24951172 C1234.12564482 2139.08442929 1232.87645871 2136.91939018 1231.62719727 2134.75439453 C1228.48797691 2129.31384294 1225.35009437 2123.87252784 1222.21484375 2118.4296875 C1216.19252671 2107.97793801 1210.15330663 2097.53700452 1204.0625 2087.125 C1198.64078822 2077.85500223 1193.29795085 2068.54168248 1187.98077393 2059.21154785 C1182.77954871 2050.0871716 1177.51972122 2040.99867226 1172.21655273 2031.93310547 C1166.06233258 2021.40915375 1159.97630004 2010.84619863 1153.89111328 2000.28222656 C1150.76319852 1994.85340058 1147.63141552 1989.42680719 1144.5 1984 C1143.24998121 1981.83334417 1141.99998122 1979.6666775 1140.75 1977.5 C1140.13125 1976.4275 1139.5125 1975.355 1138.875 1974.25 C1058.25000002 1834.50000003 1058.25000002 1834.50000003 1056.37475586 1831.24951172 C1055.12564482 1829.08442929 1053.87645871 1826.91939018 1052.62719727 1824.75439453 C1049.48797691 1819.31384294 1046.35009437 1813.87252784 1043.21484375 1808.4296875 C1037.19252671 1797.97793801 1031.15330663 1787.53700452 1025.0625 1777.125 C1019.64078822 1767.85500223 1014.29795085 1758.54168248 1008.98077393 1749.21154785 C1003.77954871 1740.0871716 998.51972122 1730.99867226 993.21655273 1721.93310547 C987.06233258 1711.40915375 980.97630004 1700.84619863 974.89111328 1690.28222656 C971.76319852 1684.85340058 968.63141552 1679.42680719 965.5 1674 C964.24998121 1671.83334417 962.99998122 1669.6666775 961.75 1667.5 C960.821875 1665.89125 960.821875 1665.89125 959.875 1664.25 C864.24999999 1498.49999998 864.24999999 1498.49999998 862.37475586 1495.24951172 C861.12564482 1493.08442929 859.87645871 1490.91939018 858.62719727 1488.75439453 C855.48797691 1483.31384294 852.35009437 1477.87252784 849.21484375 1472.4296875 C843.19252671 1461.97793801 837.15330663 1451.53700452 831.0625 1441.125 C825.64078822 1431.85500223 820.29795085 1422.54168248 814.98077393 1413.21154785 C809.77954871 1404.0871716 804.51972122 1394.99867226 799.21655273 1385.93310547 C793.06233258 1375.40915375 786.97630004 1364.84619863 780.89111328 1354.28222656 C777.76319852 1348.85340058 774.63141552 1343.42680719 771.5 1338 C770.24998121 1335.83334417 768.99998122 1333.6666775 767.75 1331.5 C766.821875 1329.89125 766.821875 1329.89125 765.875 1328.25 C685.25 1188.5 685.25 1188.5 683.37475586 1185.24951172 C682.12564482 1183.08442929 680.87645871 1180.91939018 679.62719727 1178.75439453 C676.48797691 1173.31384294 673.35009437 1167.87252784 670.21484375 1162.4296875 C664.19252671 1151.97793801 658.15330663 1141.53700452 652.0625 1131.125 C646.64078822 1121.85500223 641.29795085 1112.54168248 635.98077393 1103.21154785 C630.77954871 1094.0871716 625.51972122 1084.99867226 620.21655273 1075.93310547 C614.06233258 1065.40915375 607.97630004 1054.84619863 601.89111328 1044.28222656 C598.76319852 1038.85340058 595.63141552 1033.42680719 592.5 1028 C591.24998121 1025.83334417 589.99998122 1023.6666775 588.75 1021.5 C587.821875 1019.89125 587.821875 1019.89125 586.875 1018.25 C506.25 878.5 506.25 878.5 504.37475586 875.24951172 C503.12564482 873.08442929 501.87645871 870.91939018 500.62719727 868.75439453 C497.48797691 863.31384294 494.35009437 857.87252784 491.21484375 852.4296875 C485.19252671 841.97793801 479.15330663 831.53700452 473.0625 821.125 C467.64078822 811.85500223 462.29795085 802.54168248 456.98077393 793.21154785 C451.77954871 784.0871716 446.51972122 774.99867226 441.21655273 765.93310547 C435.06233258 755.40915375 428.97630004 744.84619863 422.89111328 734.28222656 C419.76319852 728.85340058 416.63141552 723.42680719 413.5 718 C412.24998121 715.83334417 410.99998122 713.6666775 409.75 711.5 C409.13125 710.4275 408.5125 709.355 407.875 708.25 C312.24999999 542.49999999 312.24999999 542.49999999 310.37475586 539.24951172 C309.12564482 537.08442929 307.87645871 534.91939018 306.62719727 532.75439453 C303.48797691 527.31384294 300.35009437 521.87252784 297.21484375 516.4296875 C291.19252671 505.97793801 285.15330663 495.53700452 279.0625 485.125 C273.64078822 475.85500223 268.29795085 466.54168248 262.98077393 457.21154785 C257.77954871 448.0871716 252.51972122 438.99867226 247.21655273 429.93310547 C241.06233258 419.40915375 234.97630004 408.84619863 228.89111328 398.28222656 C225.76319852 392.85340058 222.63141552 387.42680719 219.5 382 C218.24998121 379.83334417 216.99998122 377.6666775 215.75 375.5 C215.13125 374.4275 214.5125 373.355 213.875 372.25 C133.25 232.5 133.25 232.5 131.37475586 229.24951172 C130.12564482 227.08442929 128.87645871 224.91939018 127.62719727 222.75439453 C124.48797691 217.31384294 121.35009437 211.87252784 118.21484375 206.4296875 C112.19252671 195.97793801 106.15330663 185.53700452 100.0625 175.125 C94.64078822 165.85500223 89.29795085 156.54168248 83.98077393 147.21154785 C78.77954871 138.0871716 73.51972122 128.99867226 68.21655273 119.93310547 C62.06233258 109.40915375 55.97630004 98.84619863 49.89111328 88.28222656 C46.76319852 82.85340058 43.63141552 77.42680719 40.5 72 C39.24998121 69.83334417 37.99998122 67.6666775 36.75 65.5 C36.13125 64.4275 35.5125 63.355 34.875 62.25 C29.25 52.5 29.25 52.5 27.37207031 49.24487305 C26.13189239 47.09526366 24.89165873 44.94568642 23.65136719 42.79614258 C20.7264977 37.72690788 17.80219167 32.65735064 14.87988281 27.5866394 C13.50193062 25.19573403 12.12365828 22.80501328 10.74536133 20.41430664 C9.77459018 18.73016037 8.80428126 17.04574769 7.83398438 15.36132812 C6.94936523 13.82702148 6.94936523 13.82702148 6.046875 12.26171875 C5.52963867 11.36412842 5.01240234 10.46653809 4.47949219 9.54174805 C3.45173775 7.7760795 2.39259918 6.02845695 1.30957031 4.29614258 C0 2 0 2 0 0 Z " fill="#FFFFFF" transform="translate(1606,0)"/>
<path d="M0 0 C835.89 0 1671.78 0 2533 0 C2538.28 9.24 2543.56 18.48 2549 28 C2553.37684041 35.5961693 2557.75491277 43.19148019 2562.14111328 50.78222656 C2565.26324605 56.18670645 2568.38141204 61.59347412 2571.5 67 C2572.74998122 69.1666775 2573.99998121 71.33334417 2575.25 73.5 C2597.75 112.50000001 2597.75 112.50000001 2599.62524414 115.75048828 C2600.87435518 117.91557071 2602.12354129 120.08060982 2603.37280273 122.24560547 C2606.51202309 127.68615706 2609.64990563 133.12747216 2612.78515625 138.5703125 C2618.80747329 149.02206199 2624.84669337 159.46299548 2630.9375 169.875 C2636.35921178 179.14499777 2641.70204915 188.45831752 2647.01922607 197.78845215 C2652.22045129 206.9128284 2657.48027878 216.00132774 2662.78344727 225.06689453 C2668.93766742 235.59084625 2675.02369996 246.15380137 2681.10888672 256.71777344 C2684.23680148 262.14659942 2687.36858448 267.57319281 2690.5 273 C2691.75001879 275.16665583 2693.00001878 277.3333225 2694.25 279.5 C2694.86875 280.5725 2695.4875 281.645 2696.125 282.75 C2761.74999999 396.49999997 2761.74999999 396.49999997 2763.62524414 399.75048828 C2764.87435518 401.91557071 2766.12354129 404.08060982 2767.37280273 406.24560547 C2770.51202309 411.68615706 2773.64990563 417.12747216 2776.78515625 422.5703125 C2782.80747329 433.02206199 2788.84669337 443.46299548 2794.9375 453.875 C2800.35921178 463.14499777 2805.70204915 472.45831752 2811.01922607 481.78845215 C2816.22045129 490.9128284 2821.48027878 500.00132774 2826.78344727 509.06689453 C2832.93766742 519.59084625 2839.02369996 530.15380137 2845.10888672 540.71777344 C2848.23680148 546.14659942 2851.36858448 551.57319281 2854.5 557 C2855.75001879 559.16665583 2857.00001878 561.3333225 2858.25 563.5 C2858.86875 564.5725 2859.4875 565.645 2860.125 566.75 C2925.74999998 680.49999997 2925.74999998 680.49999997 2927.62524414 683.75048828 C2928.87435518 685.91557071 2930.12354129 688.08060982 2931.37280273 690.24560547 C2934.51202309 695.68615706 2937.64990563 701.12747216 2940.78515625 706.5703125 C2946.80747329 717.02206199 2952.84669337 727.46299548 2958.9375 737.875 C2964.01275369 746.55262662 2969.02230332 755.26621513 2974 764 C2979.02441543 772.81398114 2984.07461968 781.61190421 2989.1875 790.375 C2989.74969238 791.33873535 2990.31188477 792.3024707 2990.89111328 793.29541016 C2993.82567855 798.31459297 2996.78203041 803.3199657 2999.76171875 808.3125 C3000.36798096 809.33037598 3000.97424316 810.34825195 3001.59887695 811.39697266 C3002.75876305 813.34175487 3003.92249707 815.28424873 3005.09057617 817.22412109 C3005.60467041 818.08602051 3006.11876465 818.94791992 3006.6484375 819.8359375 C3007.10395996 820.59438965 3007.55948242 821.3528418 3008.02880859 822.13427734 C3009 824 3009 824 3009 826 C2938.50569668 826.01100176 2868.01139329 826.0215409 2797.51708984 826.03173828 C2796.4823342 826.03188801 2796.4823342 826.03188801 2795.42667439 826.03204076 C2721.18239923 826.04278258 2646.93812399 826.05308055 2352.32952455 826.08447801 C2349.86943166 826.08468645 2347.40933877 826.08489533 2344.94924588 826.08510434 C2275.23747486 826.09102637 2205.5257038 826.09656004 2135.8139327 826.10157386 C2133.2336544 826.10175943 2130.65337609 826.10194504 2128.07309779 826.10213066 C2126.79476686 826.10222261 2126.79476686 826.10222261 2125.49061107 826.10231642 C2093.44657636 826.10462245 2061.40254166 826.10701719 2029.35850696 826.10946488 C2025.87691404 826.10973074 2022.39532111 826.10999558 2018.91372819 826.11025951 C1936.7506922 826.11648877 1854.5876568 826.12431053 1772.42462158 826.1373291 C1771.56009999 826.13746597 1770.69557839 826.13760284 1769.80485918 826.13774386 C1741.0564126 826.14229778 1712.30796605 826.14700664 1683.5595195 826.15173688 C1657.58387613 826.15601041 1631.60823275 826.1602283 1605.63258934 826.16426277 C1604.77924145 826.16439533 1603.92589356 826.1645279 1603.04668664 826.16466448 C1549.58794638 826.17295445 1496.12920626 826.1788329 1442.67046547 826.18227959 C1441.43160508 826.18235994 1441.43160508 826.18235994 1440.16771721 826.18244191 C1403.89217613 826.1847928 1367.61663505 826.18664134 1331.34109392 826.1879158 C1316.74608744 826.18843089 1302.15108097 826.18902035 1287.5560745 826.18965055 C1285.13615738 826.18975442 1282.71624025 826.18985588 1280.29632312 826.18995707 C1243.29624562 826.19152163 1206.29616922 826.19474138 1169.29609251 826.20278788 C1168.49863656 826.20296128 1167.70118061 826.20313467 1166.87955932 826.20331333 C1154.05199262 826.20611274 1141.22442595 826.20905067 1128.39685929 826.21201252 C1091.96122629 826.22042533 1055.52559444 826.22789702 1019.08996034 826.22826552 C1018.34992724 826.22827347 1017.60989414 826.22828142 1016.84743579 826.22828961 C1000.69821806 826.22844324 984.5490004 826.22805048 968.3997827 826.22712379 C961.95790961 826.22676295 955.51603653 826.22647689 949.07416344 826.22621536 C948.02013858 826.22616966 948.02013858 826.22616966 946.94482029 826.22612302 C924.69610636 826.22519408 902.4473996 826.23040984 880.19868755 826.23921746 C857.66399361 826.24811261 835.12930775 826.25006362 812.59461251 826.24366363 C799.7873892 826.24024067 786.98019511 826.24225739 774.17297522 826.252434 C765.65379108 826.25865299 757.13462772 826.25753627 748.6154442 826.25060215 C743.79470666 826.24687973 738.97402573 826.24612477 734.15329269 826.25447049 C667.55548525 826.36215499 604.0472917 816.90701041 543 789 C542.18515137 788.63438965 541.37030273 788.2687793 540.53076172 787.89208984 C507.73410238 773.16692171 477.45336503 753.14695483 450 730 C449.43506836 729.52530273 448.87013672 729.05060547 448.28808594 728.56152344 C435.89675556 718.13055318 435.89675556 718.13055318 430.68969727 712.68701172 C428.94785506 710.94793793 427.12927268 709.36315691 425.25390625 707.76953125 C421.18502831 704.22949581 417.47223421 700.45706912 413.8125 696.5 C413.16812988 695.80640381 412.52375977 695.11280762 411.85986328 694.39819336 C400.51945428 682.1264397 389.91804613 669.45121576 380 656 C379.4961377 655.31711914 378.99227539 654.63423828 378.47314453 653.93066406 C365.89866272 636.76913568 355.20042695 618.58976674 345.01489258 599.93920898 C339.13200125 589.17370513 332.9802439 578.57992717 326.76074219 568.00537109 C323.66838494 562.72709631 320.61613247 557.42574206 317.5625 552.125 C316.94052734 551.04597412 316.31855469 549.96694824 315.67773438 548.85522461 C313.15250581 544.47361357 310.62853694 540.09127742 308.10449219 535.70898438 C301.43043688 524.12318234 294.74535916 512.54446647 288 501 C281.25298806 489.45270484 274.56660682 477.87097973 267.89111328 466.28222656 C264.76319852 460.85340058 261.63141552 455.42680719 258.5 450 C257.24998121 447.83334417 255.99998122 445.6666775 254.75 443.5 C254.13125 442.4275 253.5125 441.355 252.875 440.25 C217.25 378.5 217.25 378.5 215.37475586 375.24951172 C214.12564482 373.08442929 212.87645871 370.91939018 211.62719727 368.75439453 C208.48797691 363.31384294 205.35009437 357.87252784 202.21484375 352.4296875 C196.16944841 341.93767906 190.10889781 331.45518324 184 321 C177.25298806 309.45270484 170.56660682 297.87097973 163.89111328 286.28222656 C160.76319852 280.85340058 157.63141552 275.42680719 154.5 270 C153.24998121 267.83334417 151.99998122 265.6666775 150.75 263.5 C150.13125 262.4275 149.5125 261.355 148.875 260.25 C128.25 224.49999999 128.25 224.49999999 126.37475586 221.24951172 C125.12564482 219.08442929 123.87645871 216.91939018 122.62719727 214.75439453 C119.48797691 209.31384294 116.35009437 203.87252784 113.21484375 198.4296875 C107.16944841 187.93767906 101.10889781 177.45518324 95 167 C88.25298806 155.45270484 81.56660682 143.87097973 74.89111328 132.28222656 C71.76319852 126.85340058 68.63141552 121.42680719 65.5 116 C64.24998121 113.83334417 62.99998122 111.6666775 61.75 109.5 C61.13125 108.4275 60.5125 107.355 59.875 106.25 C39.25 70.5 39.25 70.5 37.37451172 67.24902344 C36.12628966 65.08552524 34.87791761 62.92211357 33.62939453 60.75878906 C30.47594744 55.29434983 27.32523904 49.82836355 24.1796875 44.359375 C22.91153879 42.15620369 21.64331027 39.95307831 20.375 37.75 C19.76197021 36.68386475 19.14894043 35.61772949 18.51733398 34.51928711 C15.44109767 29.18205992 12.33458951 23.86620325 9.16796875 18.58203125 C8.56098145 17.5672168 7.95399414 16.55240234 7.32861328 15.50683594 C6.17796322 13.58855563 5.02165794 11.67365266 3.85888672 9.76269531 C3.34986816 8.91416992 2.84084961 8.06564453 2.31640625 7.19140625 C1.86724854 6.45092041 1.41809082 5.71043457 0.95532227 4.94750977 C0 3 0 3 0 0 Z " fill="#FFFFFF" transform="translate(0,2780)"/>
<path d="M0 0 C0.66 0 1.32 0 2 0 C2.3717334 0.66829834 2.7434668 1.33659668 3.12646484 2.02514648 C12.46776308 18.80860557 12.46776308 18.80860557 22.11230469 35.41845703 C31.62398062 51.46798227 40.83437034 67.6961657 50.07598877 83.9022522 C54.67302225 91.96098741 59.31276504 99.99336382 64 108 C69.0318069 116.59522672 74.00389072 125.2231213 78.9375 133.875 C85.96603507 146.20025196 93.04240434 158.49722067 100.14111328 170.78222656 C103.88978034 177.27125096 107.63308667 183.7633695 111.37744141 190.25488281 C114.48818339 195.64748314 117.60013327 201.03937822 120.71484375 206.4296875 C127.53502637 218.23629484 134.3232326 230.06027 141.07736206 241.90472412 C145.67394223 249.96263212 150.3132416 257.99417786 155 266 C160.0318069 274.59522672 165.00389072 283.2231213 169.9375 291.875 C176.96603507 304.20025196 184.04240434 316.49722067 191.14111328 328.78222656 C194.88978034 335.27125096 198.63308667 341.7633695 202.37744141 348.25488281 C205.48818339 353.64748314 208.60013327 359.03937822 211.71484375 364.4296875 C218.53502637 376.23629484 225.3232326 388.06027 232.07736206 399.90472412 C236.67394223 407.96263212 241.3132416 415.99417786 246 424 C251.0318069 432.59522672 256.00389072 441.2231213 260.9375 449.875 C266.12442426 458.97079987 271.32681506 468.05712263 276.5625 477.125 C277.17802734 478.19105469 277.79355469 479.25710938 278.42773438 480.35546875 C280.28470194 483.57057523 282.14223579 486.78535378 284 490 C292.06089304 503.94844368 300.09709426 517.91003888 308.07736206 531.90472412 C312.67394223 539.96263212 317.3132416 547.99417786 322 556 C327.0318069 564.59522672 332.00389072 573.2231213 336.9375 581.875 C343.96603507 594.20025196 351.04240434 606.49722067 358.14111328 618.78222656 C361.88978034 625.27125096 365.63308667 631.7633695 369.37744141 638.25488281 C372.48818339 643.64748314 375.60013327 649.03937822 378.71484375 654.4296875 C385.53502637 666.23629484 392.3232326 678.06027 399.07736206 689.90472412 C403.67394223 697.96263212 408.3132416 705.99417786 413 714 C418.0318069 722.59522672 423.00389072 731.2231213 427.9375 739.875 C434.96603507 752.20025196 442.04240434 764.49722067 449.14111328 776.78222656 C452.88978034 783.27125096 456.63308667 789.7633695 460.37744141 796.25488281 C463.48818339 801.64748314 466.60013327 807.03937822 469.71484375 812.4296875 C476.53502637 824.23629484 483.3232326 836.06027 490.07736206 847.90472412 C494.67394223 855.96263212 499.3132416 863.99417786 504 872 C509.0318069 880.59522672 514.00389072 889.2231213 518.9375 897.875 C525.96603507 910.20025196 533.04240434 922.49722067 540.14111328 934.78222656 C543.88978034 941.27125096 547.63308667 947.7633695 551.37744141 954.25488281 C554.48818339 959.64748314 557.60013327 965.03937822 560.71484375 970.4296875 C567.53502637 982.23629484 574.3232326 994.06027 581.07736206 1005.90472412 C585.67394223 1013.96263212 590.3132416 1021.99417786 595 1030 C600.0318069 1038.59522672 605.00389072 1047.2231213 609.9375 1055.875 C615.12442426 1064.97079987 620.32681506 1074.05712263 625.5625 1083.125 C626.17802734 1084.19105469 626.79355469 1085.25710938 627.42773438 1086.35546875 C629.28470194 1089.57057523 631.14223579 1092.78535378 633 1096 C641.06089304 1109.94844368 649.09709426 1123.91003888 657.07736206 1137.90472412 C661.67394223 1145.96263212 666.3132416 1153.99417786 671 1162 C676.0318069 1170.59522672 681.00389072 1179.2231213 685.9375 1187.875 C692.96603507 1200.20025196 700.04240434 1212.49722067 707.14111328 1224.78222656 C710.88978034 1231.27125096 714.63308667 1237.7633695 718.37744141 1244.25488281 C721.48818339 1249.64748314 724.60013327 1255.03937822 727.71484375 1260.4296875 C734.53502637 1272.23629484 741.3232326 1284.06027 748.07736206 1295.90472412 C752.67394223 1303.96263212 757.3132416 1311.99417786 762 1320 C767.0318069 1328.59522672 772.00389072 1337.2231213 776.9375 1345.875 C783.96603507 1358.20025196 791.04240434 1370.49722067 798.14111328 1382.78222656 C801.88978034 1389.27125096 805.63308667 1395.7633695 809.37744141 1402.25488281 C812.48818339 1407.64748314 815.60013327 1413.03937822 818.71484375 1418.4296875 C825.53502637 1430.23629484 832.3232326 1442.06027 839.07736206 1453.90472412 C843.67394223 1461.96263212 848.3132416 1469.99417786 853 1478 C858.0318069 1486.59522672 863.00389072 1495.2231213 867.9375 1503.875 C873.12442426 1512.97079987 878.32681506 1522.05712263 883.5625 1531.125 C884.17802734 1532.19105469 884.79355469 1533.25710938 885.42773438 1534.35546875 C887.28470194 1537.57057523 889.14223579 1540.78535378 891 1544 C893.47992741 1548.29122774 895.95918184 1552.58284265 898.4375 1556.875 C899.04650146 1557.92945312 899.65550293 1558.98390625 900.28295898 1560.0703125 C903.64510166 1565.89773251 906.99308057 1571.7329456 910.32421875 1577.578125 C910.68460739 1578.21021881 911.04499603 1578.84231262 911.41630554 1579.49356079 C913.15803224 1582.5489197 914.89789266 1585.60531487 916.63452148 1588.66357422 C919.32816696 1593.39342369 922.0249606 1598.09544287 924.9609375 1602.6796875 C927 1606 927 1606 927 1608 C314.52 1608 -297.96 1608 -929 1608 C-927.76540872 1604.9135218 -926.68785459 1602.26074518 -925.109375 1599.41796875 C-924.55117065 1598.41056641 -924.55117065 1598.41056641 -923.98168945 1597.3828125 C-923.57523193 1596.65835938 -923.16877441 1595.93390625 -922.75 1595.1875 C-922.31453857 1594.40761719 -921.87907715 1593.62773437 -921.43041992 1592.82421875 C-916.62754585 1584.26646158 -911.66206012 1575.80382282 -906.703125 1567.3359375 C-902.96365411 1560.94718008 -899.25874966 1554.53883924 -895.5625 1548.125 C-894.94028564 1547.04541016 -894.31807129 1545.96582031 -893.67700195 1544.85351562 C-892.41488483 1542.6631748 -891.15292215 1540.47274498 -889.89111328 1538.28222656 C-886.13971976 1531.77128743 -882.38309006 1525.26336806 -878.62744141 1518.75488281 C-875.48817754 1513.31414664 -872.35018503 1507.87268523 -869.21484375 1502.4296875 C-862.59777108 1490.9455118 -855.95366023 1479.47803106 -849.26708984 1468.03417969 C-843.10080946 1457.47379718 -836.9950405 1446.87873234 -830.89111328 1436.28222656 C-827.13971976 1429.77128743 -823.38309006 1423.26336806 -819.62744141 1416.75488281 C-816.48817754 1411.31414664 -813.35018503 1405.87268523 -810.21484375 1400.4296875 C-803.59777108 1388.9455118 -796.95366023 1377.47803106 -790.26708984 1366.03417969 C-784.10080946 1355.47379718 -777.9950405 1344.87873234 -771.89111328 1334.28222656 C-768.13971976 1327.77128743 -764.38309006 1321.26336806 -760.62744141 1314.75488281 C-757.48817754 1309.31414664 -754.35018503 1303.87268523 -751.21484375 1298.4296875 C-744.59777108 1286.9455118 -737.95366023 1275.47803106 -731.26708984 1264.03417969 C-725.10080946 1253.47379718 -718.9950405 1242.87873234 -712.89111328 1232.28222656 C-709.76319852 1226.85340058 -706.63141552 1221.42680719 -703.5 1216 C-702.24998121 1213.83334417 -700.99998122 1211.6666775 -699.75 1209.5 C-697.25 1205.16666667 -694.75 1200.83333333 -692.25 1196.5 C-691.63116943 1195.42733887 -691.01233887 1194.35467773 -690.37475586 1193.24951172 C-689.12564482 1191.08442929 -687.87645871 1188.91939018 -686.62719727 1186.75439453 C-683.48797691 1181.31384294 -680.35009437 1175.87252784 -677.21484375 1170.4296875 C-670.59777108 1158.9455118 -663.95366023 1147.47803106 -657.26708984 1136.03417969 C-651.10080946 1125.47379718 -644.9950405 1114.87873234 -638.89111328 1104.28222656 C-635.13971976 1097.77128743 -631.38309006 1091.26336806 -627.62744141 1084.75488281 C-624.48817754 1079.31414664 -621.35018503 1073.87268523 -618.21484375 1068.4296875 C-611.59777108 1056.9455118 -604.95366023 1045.47803106 -598.26708984 1034.03417969 C-592.10080946 1023.47379718 -585.9950405 1012.87873234 -579.89111328 1002.28222656 C-576.13971976 995.77128743 -572.38309006 989.26336806 -568.62744141 982.75488281 C-565.48817754 977.31414664 -562.35018503 971.87268523 -559.21484375 966.4296875 C-552.59777108 954.9455118 -545.95366023 943.47803106 -539.26708984 932.03417969 C-533.10080946 921.47379718 -526.9950405 910.87873234 -520.89111328 900.28222656 C-517.76319852 894.85340058 -514.63141552 889.42680719 -511.5 884 C-510.24998121 881.83334417 -508.99998122 879.6666775 -507.75 877.5 C-505.25 873.16666667 -502.75 868.83333333 -500.25 864.5 C-499.63116943 863.42733887 -499.01233887 862.35467773 -498.37475586 861.24951172 C-497.12564482 859.08442929 -495.87645871 856.91939018 -494.62719727 854.75439453 C-491.48797691 849.31384294 -488.35009437 843.87252784 -485.21484375 838.4296875 C-478.59777108 826.9455118 -471.95366023 815.47803106 -465.26708984 804.03417969 C-459.10080946 793.47379718 -452.9950405 782.87873234 -446.89111328 772.28222656 C-443.13971976 765.77128743 -439.38309006 759.26336806 -435.62744141 752.75488281 C-432.48817754 747.31414664 -429.35018503 741.87268523 -426.21484375 736.4296875 C-419.59777108 724.9455118 -412.95366023 713.47803106 -406.26708984 702.03417969 C-400.10080946 691.47379718 -393.9950405 680.87873234 -387.89111328 670.28222656 C-384.13971976 663.77128743 -380.38309006 657.26336806 -376.62744141 650.75488281 C-373.48817754 645.31414664 -370.35018503 639.87268523 -367.21484375 634.4296875 C-360.59777108 622.9455118 -353.95366023 611.47803106 -347.26708984 600.03417969 C-341.10080946 589.47379718 -334.9950405 578.87873234 -328.89111328 568.28222656 C-325.76319852 562.85340058 -322.63141552 557.42680719 -319.5 552 C-318.24998121 549.83334417 -316.99998122 547.6666775 -315.75 545.5 C-313.25 541.16666667 -310.75 536.83333333 -308.25 532.5 C-307.63116943 531.42733887 -307.01233887 530.35467773 -306.37475586 529.24951172 C-305.12564482 527.08442929 -303.87645871 524.91939018 -302.62719727 522.75439453 C-299.48797691 517.31384294 -296.35009437 511.87252784 -293.21484375 506.4296875 C-286.59777108 494.9455118 -279.95366023 483.47803106 -273.26708984 472.03417969 C-267.10080946 461.47379718 -260.9950405 450.87873234 -254.89111328 440.28222656 C-251.13971976 433.77128743 -247.38309006 427.26336806 -243.62744141 420.75488281 C-240.48817754 415.31414664 -237.35018503 409.87268523 -234.21484375 404.4296875 C-227.59777108 392.9455118 -220.95366023 381.47803106 -214.26708984 370.03417969 C-208.10080946 359.47379718 -201.9950405 348.87873234 -195.89111328 338.28222656 C-192.13971976 331.77128743 -188.38309006 325.26336806 -184.62744141 318.75488281 C-181.48817754 313.31414664 -178.35018503 307.87268523 -175.21484375 302.4296875 C-168.59777108 290.9455118 -161.95366023 279.47803106 -155.26708984 268.03417969 C-149.10080946 257.47379718 -142.9950405 246.87873234 -136.89111328 236.28222656 C-133.76319852 230.85340058 -130.63141552 225.42680719 -127.5 220 C-126.24998121 217.83334417 -124.99998122 215.6666775 -123.75 213.5 C-121.25 209.16666667 -118.75 204.83333333 -116.25 200.5 C-115.63116943 199.42733887 -115.01233887 198.35467773 -114.37475586 197.24951172 C-113.12564482 195.08442929 -111.87645871 192.91939018 -110.62719727 190.75439453 C-107.48797691 185.31384294 -104.35009437 179.87252784 -101.21484375 174.4296875 C-94.59777108 162.9455118 -87.95366023 151.47803106 -81.26708984 140.03417969 C-75.10080946 129.47379718 -68.9950405 118.87873234 -62.89111328 108.28222656 C-59.13971976 101.77128743 -55.38309006 95.26336806 -51.62744141 88.75488281 C-48.48817754 83.31414664 -45.35018503 77.87268523 -42.21484375 72.4296875 C-35.60743644 60.96228639 -28.97527924 49.51021478 -22.2956543 38.0847168 C-19.13463073 32.67345783 -15.98778218 27.25437949 -12.859375 21.82421875 C-12.34280334 20.9276506 -12.34280334 20.9276506 -11.8157959 20.01296997 C-10.14108368 17.10534351 -8.46811326 14.19673518 -6.796875 11.28710938 C-6.19875 10.24748047 -5.600625 9.20785156 -4.984375 8.13671875 C-4.19111816 6.75552856 -4.19111816 6.75552856 -3.38183594 5.34643555 C-2.31175189 3.52937233 -1.16972036 1.75458054 0 0 Z " fill="#FFFFFF" transform="translate(1269,585)"/>
</svg>
