<?xml version="1.0" encoding="UTF-8"?>
<svg version="1.1" xmlns="http://www.w3.org/2000/svg" width="320" height="320">
<path d="M0 0 C1.01707031 -0.0299707 1.01707031 -0.0299707 2.0546875 -0.06054688 C12.69003999 -0.05062584 21.71617212 5.32567759 30.5625 10.6875 C32.68021378 11.94661823 34.79873672 13.20437631 36.91796875 14.4609375 C38.01544434 15.11416992 39.11291992 15.76740234 40.24365234 16.44042969 C45.91902028 19.79237985 51.64713185 23.05139182 57.375 26.3125 C58.55450858 26.98515582 59.73395163 27.65792659 60.91333008 28.33081055 C63.29250043 29.68803676 65.67198334 31.04471226 68.05175781 32.40087891 C71.60552103 34.42617703 75.1584647 36.4529081 78.7109375 38.48046875 C79.58518623 38.97943413 79.58518623 38.97943413 80.47709656 39.48847961 C84.54763982 41.81225448 88.61587486 44.14003474 92.68359375 46.46875 C96.79910008 48.82479152 100.9187845 51.17292848 105.04534912 53.50953674 C106.8290366 54.52069467 108.61088977 55.53500478 110.39208984 56.55053711 C112.59632619 57.80684169 114.80347519 59.05805641 117.01416016 60.30297852 C129.47652863 67.43021569 138.9281565 74.41748343 143.79454041 88.29205322 C145.272365 93.88945813 145.18037203 99.42175806 145.14257812 105.1796875 C145.14801217 106.52305861 145.15514196 107.86642375 145.16381836 109.20977783 C145.18190282 112.82560364 145.17504669 116.44096797 145.16230202 120.05680084 C145.15209638 123.86063276 145.1615885 127.66442807 145.16784668 131.46826172 C145.17510127 137.85326144 145.16559324 144.23807542 145.14648438 150.62304688 C145.12471972 157.97985916 145.13177265 165.33622785 145.15379 172.6930294 C145.17200678 179.03650873 145.17447182 185.37985537 145.16403532 191.72335243 C145.15783469 195.50019209 145.15686916 199.27682401 145.17018127 203.0536499 C145.18183127 206.60635647 145.17354993 210.15849733 145.15060425 213.71114349 C145.1428886 215.61855821 145.15459453 217.52602141 145.16711426 219.43341064 C145.05336018 231.13606453 142.05472191 241.02293946 133.625 249.4375 C127.29760883 254.82385415 120.09305368 258.76244954 112.875 262.8125 C111.63800841 263.51226102 110.40136158 264.21263178 109.16503906 264.91357422 C106.59966901 266.36733336 104.03285212 267.8184848 101.46484375 269.26757812 C96.00846435 272.34841441 90.56612103 275.45378735 85.1255188 278.56237793 C83.95516698 279.23103381 82.78465412 279.8994079 81.61398315 280.56750488 C73.52616445 285.18350205 65.47122214 289.85298534 57.4375 294.5625 C49.04540922 299.47782724 40.60754513 304.30489589 32.125 309.0625 C31.09221924 309.64273926 30.05943848 310.22297852 28.99536133 310.82080078 C11.47997525 320.6049494 11.47997525 320.6049494 0.5625 320.75 C-0.4884082 320.79350586 -0.4884082 320.79350586 -1.56054688 320.83789062 C-12.34999912 320.96459603 -21.33765696 315.62721636 -30.3125 310.1875 C-32.43021378 308.92838177 -34.54873672 307.67062369 -36.66796875 306.4140625 C-37.76544434 305.76083008 -38.86291992 305.10759766 -39.99365234 304.43457031 C-45.66902028 301.08262015 -51.39713185 297.82360818 -57.125 294.5625 C-58.30450858 293.88984418 -59.48395163 293.21707341 -60.66333008 292.54418945 C-63.04250043 291.18696324 -65.42198334 289.83028774 -67.80175781 288.47412109 C-71.35552103 286.44882297 -74.9084647 284.4220919 -78.4609375 282.39453125 C-79.04376999 282.06188766 -79.62660248 281.72924408 -80.22709656 281.38652039 C-84.29763982 279.06274552 -88.36587486 276.73496526 -92.43359375 274.40625 C-96.54910008 272.05020848 -100.6687845 269.70207152 -104.79534912 267.36546326 C-106.5790366 266.35430533 -108.36088977 265.33999522 -110.14208984 264.32446289 C-112.34632619 263.06815831 -114.55347519 261.81694359 -116.76416016 260.57202148 C-129.22652863 253.44478431 -138.6781565 246.45751657 -143.54454041 232.58294678 C-145.022365 226.98554187 -144.93037203 221.45324194 -144.89257812 215.6953125 C-144.89801217 214.35194139 -144.90514196 213.00857625 -144.91381836 211.66522217 C-144.93190282 208.04939636 -144.92504669 204.43403203 -144.91230202 200.81819916 C-144.90209638 197.01436724 -144.9115885 193.21057193 -144.91784668 189.40673828 C-144.92510127 183.02173856 -144.91559324 176.63692458 -144.89648438 170.25195312 C-144.87471972 162.89514084 -144.88177265 155.53877215 -144.90379 148.1819706 C-144.92200678 141.83849127 -144.92447182 135.49514463 -144.91403532 129.15164757 C-144.90783469 125.37480791 -144.90686916 121.59817599 -144.92018127 117.8213501 C-144.93183127 114.26864353 -144.92354993 110.71650267 -144.90060425 107.16385651 C-144.8928886 105.25644179 -144.90459453 103.34897859 -144.91711426 101.44158936 C-144.80336018 89.73893547 -141.80472191 79.85206054 -133.375 71.4375 C-127.01549698 66.01753666 -119.75888754 62.07003493 -112.5 58 C-111.25483828 57.29622723 -110.0100534 56.59178738 -108.765625 55.88671875 C-106.85028427 54.80154326 -104.93476768 53.71669855 -103.01812744 52.63381958 C-96.78039113 49.10870854 -90.5759851 45.52681539 -84.375 41.9375 C-74.22854682 36.07319925 -64.06253572 30.24383872 -53.87768555 24.4465332 C-47.94494659 21.06683352 -42.03099372 17.65896296 -36.14453125 14.19921875 C-34.96430129 13.50827803 -33.78396426 12.81752018 -32.60351562 12.12695312 C-30.39366715 10.83187326 -28.18765413 9.53021677 -25.98632812 8.22070312 C-17.42717065 3.21544469 -10.00184699 -0.10340255 0 0 Z M-101.375 104.4375 C-103.06321048 107.81392095 -102.55986378 111.64062942 -102.578125 115.35546875 C-102.58382507 116.24607498 -102.58952515 117.13668121 -102.59539795 118.05427551 C-102.60485582 119.94315399 -102.61138505 121.83204903 -102.61523438 123.72094727 C-102.62490303 126.59616424 -102.65590335 129.47065513 -102.6875 132.34570312 C-102.69403385 134.18228743 -102.69928282 136.01887684 -102.703125 137.85546875 C-102.7154718 138.70989059 -102.7278186 139.56431244 -102.74053955 140.44462585 C-102.72053897 145.868575 -102.14126257 149.71569385 -99.375 154.4375 C-96.74847337 156.68883449 -96.74847337 156.68883449 -93.55078125 158.3671875 C-92.69206169 158.861689 -92.69206169 158.861689 -91.81599426 159.36618042 C-90.61180479 160.05840015 -89.40303027 160.74269943 -88.19000244 161.41931152 C-85.29747422 163.0419754 -82.45636259 164.75085499 -79.60546875 166.4453125 C-77.26004074 167.82152681 -74.91105895 169.19163744 -72.5625 170.5625 C-71.28704092 171.30847671 -70.01165162 172.05457276 -68.73632812 172.80078125 C-62.88538279 176.22315213 -57.03061323 179.63897108 -51.17578125 183.0546875 C-50.20995117 183.61824951 -49.24412109 184.18181152 -48.24902344 184.76245117 C-46.33790549 185.87629591 -44.42579968 186.98844748 -42.51269531 188.09887695 C-37.54564125 190.98550913 -32.59554367 193.89706232 -27.67172241 196.85671997 C-25.0353938 198.44008727 -22.3939462 200.01480851 -19.75219727 201.58911133 C-18.47295519 202.35472443 -17.196192 203.12449686 -15.92211914 203.89868164 C-14.14044869 204.98090771 -12.35062935 206.04833249 -10.55859375 207.11328125 C-9.53306396 207.73114502 -8.50753418 208.34900879 -7.45092773 208.9855957 C-3.92593285 210.64946939 -1.27460101 211.31667728 2.625 211.4375 C5.72579872 210.35514668 5.72579872 210.35514668 8.66015625 208.4921875 C9.78736084 207.83420166 10.91456543 207.17621582 12.07592773 206.49829102 C13.28000139 205.77005141 14.48385343 205.04144528 15.6875 204.3125 C16.94699044 203.56852269 18.20750298 202.82627318 19.46899414 202.08569336 C22.62216238 200.22934577 25.7626417 198.35265796 28.90002441 196.4697876 C31.37080465 194.9911836 33.85288111 193.53209069 36.3359375 192.07421875 C39.84648224 190.01146526 43.3513709 187.93964746 46.8515625 185.859375 C53.06502698 182.17033608 59.29907717 178.5167708 65.53451538 174.86505127 C67.41727513 173.76185074 69.29920923 172.65725482 71.1809082 171.55224609 C76.4891183 168.43635134 81.80063128 165.32794744 87.14453125 162.2734375 C87.93819092 161.81670654 88.73185059 161.35997559 89.54956055 160.8894043 C90.95973791 160.07909601 92.37366384 159.27525618 93.79223633 158.47973633 C97.21586582 156.5047576 99.55456258 154.81136376 101.625 151.4375 C102.05446399 149.14245171 102.05446399 149.14245171 101.96557617 146.66894531 C101.96523628 145.25793549 101.96523628 145.25793549 101.96488953 143.81842041 C101.94940567 142.81099792 101.93392181 141.80357544 101.91796875 140.765625 C101.91372391 139.72807068 101.90947906 138.69051636 101.90510559 137.621521 C101.88832223 134.30991592 101.85066992 130.99892093 101.8125 127.6875 C101.79745275 125.44141504 101.78376442 123.19532054 101.77148438 120.94921875 C101.73841986 115.44510459 101.6882236 109.94134588 101.625 104.4375 C97.40443806 105.0277614 94.45929527 106.48174884 90.8125 108.65625 C89.97652283 109.15040405 89.97652283 109.15040405 89.12365723 109.65454102 C87.28677794 110.74228499 85.45602098 111.83992844 83.625 112.9375 C82.32662507 113.70844604 81.0277886 114.47861526 79.72851562 115.24804688 C77.02945032 116.84725422 74.33240268 118.44978746 71.63671875 120.0546875 C66.07622195 123.36179732 60.49197741 126.62818726 54.90756226 129.89468384 C51.92319546 131.64056728 48.94002136 133.38848441 45.95703125 135.13671875 C45.36312088 135.48474045 44.76921051 135.83276215 44.15730286 136.19132996 C40.31837536 138.44187373 36.48293572 140.69826634 32.64950562 142.9581604 C30.00718822 144.51558726 27.36374441 146.07109661 24.72021484 147.62646484 C23.46688485 148.36460467 22.21410031 149.10367158 20.96191406 149.84375 C17.19785122 152.06824776 13.41922758 154.26487974 9.625 156.4375 C8.83818848 156.89946777 8.05137695 157.36143555 7.24072266 157.83740234 C4.37485762 159.42382704 2.07801584 160.41755983 -1.21484375 160.5625 C-6.15311364 158.80450034 -10.46228434 156.14200231 -14.9375 153.4375 C-17.10146625 152.15218168 -19.2655331 150.86703273 -21.4296875 149.58203125 C-22.57661903 148.89685071 -23.72342733 148.21146383 -24.87011719 147.52587891 C-30.1443009 144.37723061 -35.45070735 141.28354775 -40.75341797 138.18328857 C-43.7981047 136.40218793 -46.84038696 134.61699071 -49.8828125 132.83203125 C-51.12010979 132.10626994 -52.35741453 131.38052132 -53.59472656 130.65478516 C-54.21416138 130.29145081 -54.83359619 129.92811646 -55.47180176 129.55377197 C-60.6692195 126.50536029 -65.86710829 123.45775195 -71.06509399 120.41030884 C-72.87118627 119.35138035 -74.67717591 118.292277 -76.4831543 117.2331543 C-78.70265238 115.93183811 -80.92323008 114.63236109 -83.14501953 113.33496094 C-85.36160827 112.03281977 -87.57057677 110.71764562 -89.77294922 109.39160156 C-90.84689941 108.74932617 -91.92084961 108.10705078 -93.02734375 107.4453125 C-93.98503662 106.86668457 -94.94272949 106.28805664 -95.92944336 105.69189453 C-98.36180596 104.20930381 -98.36180596 104.20930381 -101.375 104.4375 Z M-100.375 173.4375 C-103.840524 176.903024 -102.67889334 181.96366384 -102.69726562 186.64648438 C-102.69509033 187.38213623 -102.69291504 188.11778809 -102.69067383 188.87573242 C-102.68753626 191.09930452 -102.71088531 193.32151659 -102.73632812 195.54492188 C-102.73860358 196.9713525 -102.73930347 198.39778668 -102.73828125 199.82421875 C-102.74126221 201.11545654 -102.74424316 202.40669434 -102.74731445 203.73706055 C-102.23737732 208.80533407 -101.09975952 212.97718402 -97.08203125 216.37890625 C-96.12683594 216.91386719 -95.17164063 217.44882813 -94.1875 218 C-93.64359619 218.31316162 -93.09969238 218.62632324 -92.53930664 218.94897461 C-91.2594736 219.68467781 -89.97476921 220.41194174 -88.68652344 221.1328125 C-85.97411103 222.66377278 -83.28783806 224.23613317 -80.6015625 225.8125 C-75.54373014 228.78001923 -70.47701298 231.73175369 -65.40576172 234.67626953 C-60.39164873 237.59006131 -55.38337892 240.51386643 -50.375 243.4375 C-49.385 242.7775 -48.395 242.1175 -47.375 241.4375 C-47.08243951 238.94104774 -46.97867092 236.69609131 -47.01171875 234.19921875 C-47.01122025 233.48143753 -47.01072174 232.76365631 -47.01020813 232.02412415 C-47.01255045 230.50344073 -47.0222884 228.98275358 -47.03881836 227.4621582 C-47.06230406 225.14433707 -47.05939432 222.82767465 -47.05273438 220.50976562 C-47.05831499 219.03124319 -47.06542728 217.55272558 -47.07421875 216.07421875 C-47.07330734 215.38446457 -47.07239594 214.69471039 -47.07145691 213.98405457 C-47.14018765 209.26944511 -47.48737649 205.37538658 -50.87866211 201.89379883 C-56.9836399 197.53240464 -63.40940692 193.8147712 -69.9375 190.125 C-72.25269508 188.80711408 -74.56574456 187.48551972 -76.87890625 186.1640625 C-77.99152832 185.52887695 -79.10415039 184.89369141 -80.25048828 184.23925781 C-84.94477447 181.53228547 -89.58216474 178.73399034 -94.18579102 175.87573242 C-97.06660711 173.99602016 -97.06660711 173.99602016 -100.375 173.4375 Z M95.89208984 174.72583008 C94.80105957 175.37962646 93.7100293 176.03342285 92.5859375 176.70703125 C91.99184586 177.05902588 91.39775421 177.41102051 90.78565979 177.77368164 C88.85117929 178.92282874 86.92562353 180.08608304 85 181.25 C83.67966405 182.03891941 82.35878041 182.82692293 81.03735352 183.61401367 C78.42580151 185.17069947 75.81722745 186.7322105 73.21044922 188.296875 C70.17890272 190.11246219 67.12955158 191.89435048 64.06640625 193.65625 C63.28797363 194.10508545 62.50954102 194.5539209 61.70751953 195.01635742 C60.32399243 195.81205085 58.93839231 196.60415575 57.55029297 197.3918457 C52.96193182 200.05465758 49.34233568 202.28549296 47.625 207.4375 C47.50462131 209.99992453 47.43696388 212.53442391 47.421875 215.09765625 C47.41617493 215.84333359 47.41047485 216.58901093 47.40460205 217.35728455 C47.39516684 218.93161606 47.38862394 220.5059672 47.38476562 222.08032227 C47.3750216 224.4946488 47.34397046 226.90813744 47.3125 229.32226562 C47.30597342 230.85155744 47.3007216 232.38085534 47.296875 233.91015625 C47.2845282 234.63413101 47.2721814 235.35810577 47.25946045 236.10401917 C47.23464925 238.35337691 47.23464925 238.35337691 47.625 241.4375 C48.615 242.0975 49.605 242.7575 50.625 243.4375 C57.49494967 239.49053036 64.35974637 235.53482743 71.21687317 231.56562805 C74.13156607 229.8785662 77.0477949 228.19438521 79.96728516 226.515625 C83.00378064 224.76848514 86.03384949 223.01069442 89.0625 221.25 C89.98434082 220.72253174 90.90618164 220.19506348 91.85595703 219.65161133 C92.70657715 219.1542749 93.55719727 218.65693848 94.43359375 218.14453125 C95.17407959 217.7163208 95.91456543 217.28811035 96.67749023 216.84692383 C99.02219263 215.15004945 100.25424239 214.01359733 101.625 211.4375 C101.88187989 208.53319198 101.97487291 205.85159168 101.91796875 202.953125 C101.91160149 201.72973419 101.91160149 201.72973419 101.90510559 200.48162842 C101.88834715 197.88324616 101.85070097 195.28564681 101.8125 192.6875 C101.79744946 190.92318831 101.7837617 189.15886442 101.77148438 187.39453125 C101.73845301 183.07522035 101.68669086 178.7564928 101.625 174.4375 C98.62401135 173.05352386 98.62401135 173.05352386 95.89208984 174.72583008 Z " fill="#EB7F15" transform="translate(160.375,-0.4375)"/>
<path d="M0 0 C0.33 0 0.66 0 1 0 C1 15.51 1 31.02 1 47 C27.10036254 32.69007526 27.10036254 32.69007526 41 8 C41.76605458 4.59880678 41.76605458 4.59880678 42 2 C42.33 2 42.66 2 43 2 C43.0936778 17.71680204 43.16409352 33.43352799 43.20724869 49.15054035 C43.22782409 56.44916969 43.25584772 63.74762499 43.30175781 71.04614258 C43.3417804 77.41176499 43.36746927 83.77726128 43.37635398 90.14300603 C43.38154287 93.50985191 43.39363161 96.87633715 43.42292023 100.24306679 C43.45210244 104.01292629 43.45594963 107.78204705 43.45410156 111.55200195 C43.46848267 112.65324402 43.48286377 113.75448608 43.49768066 114.88909912 C43.43799844 126.19510952 40.10378991 135.91078526 32 144 C25.67260883 149.38635415 18.46805368 153.32494954 11.25 157.375 C10.01300841 158.07476102 8.77636158 158.77513178 7.54003906 159.47607422 C4.97466901 160.92983336 2.40785212 162.3809848 -0.16015625 163.83007812 C-5.61653565 166.91091441 -11.05887897 170.01628735 -16.4994812 173.12487793 C-17.66983302 173.79353381 -18.84034588 174.4619079 -20.01101685 175.13000488 C-28.09883555 179.74600205 -36.15377786 184.41548534 -44.1875 189.125 C-52.57959078 194.04032724 -61.01745487 198.86739589 -69.5 203.625 C-70.53278076 204.20523926 -71.56556152 204.78547852 -72.62963867 205.38330078 C-90.14502475 215.1674494 -90.14502475 215.1674494 -101.0625 215.3125 C-101.76310547 215.34150391 -102.46371094 215.37050781 -103.18554688 215.40039062 C-113.9746446 215.52709186 -122.96314714 210.19016431 -131.9375 204.75 C-134.01869847 203.51162021 -136.10076963 202.27470617 -138.18359375 201.0390625 C-139.27655762 200.3884082 -140.36952148 199.73775391 -141.49560547 199.06738281 C-147.78516346 195.34200691 -154.14797759 191.74238564 -160.5 188.125 C-161.75387748 187.40992297 -163.00770364 186.69475595 -164.26147461 185.97949219 C-167.17373334 184.3186348 -170.08656236 182.6587882 -173 181 C-173 179.68 -173 178.36 -173 177 C-172.01 176.67 -171.02 176.34 -170 176 C-170.639375 175.401875 -171.27875 174.80375 -171.9375 174.1875 C-174 172 -174 172 -175 169 C-173.68 168.67 -172.36 168.34 -171 168 C-171.474375 167.5875 -171.94875 167.175 -172.4375 166.75 C-174.91422066 163.97607286 -175 161.6461404 -175 158 C-173.5 155 -173.5 155 -172 152 C-172.66 151.67 -173.32 151.34 -174 151 C-173.38722388 148.03824877 -172.74627478 146.61941217 -171 144 C-171.350625 143.4225 -171.70125 142.845 -172.0625 142.25 C-173.18132956 139.56480906 -172.7651919 138.72068232 -172 136 C-172.46195593 132.95109085 -173.22519582 131.66220627 -175 129 C-175 128.34 -175 127.68 -175 127 C-175.66 126.34 -176.32 125.68 -177 125 C-174 124 -174 124 -171.67163086 125.09570312 C-170.33177124 125.93004883 -170.33177124 125.93004883 -168.96484375 126.78125 C-167.99095703 127.37550781 -167.01707031 127.96976562 -166.01367188 128.58203125 C-164.99853516 129.21496094 -163.98339844 129.84789062 -162.9375 130.5 C-160.93022684 131.74676928 -158.91871353 132.98674673 -156.90234375 134.21875 C-156.01023193 134.77498047 -155.11812012 135.33121094 -154.19897461 135.90429688 C-153.47331299 136.26587891 -152.74765137 136.62746094 -152 137 C-151.34 136.67 -150.68 136.34 -150 136 C-149.95042142 131.39186151 -149.91419615 126.78387963 -149.89013672 122.17553711 C-149.88010274 120.60910333 -149.86647246 119.04268817 -149.84912109 117.47631836 C-149.82475775 115.21984247 -149.81349084 112.96361506 -149.8046875 110.70703125 C-149.79436493 110.01100296 -149.78404236 109.31497467 -149.77340698 108.59785461 C-149.77249687 104.61965644 -150.16642022 101.55094387 -152 98 C-153.62084653 96.43920694 -153.62084653 96.43920694 -155.6875 95.25 C-156.47382813 94.75757813 -157.26015625 94.26515625 -158.0703125 93.7578125 C-159.03710938 93.17773438 -160.00390625 92.59765625 -161 92 C-162.30998891 91.20588269 -163.61987789 90.41160051 -164.9296875 89.6171875 C-168.60933601 87.39364029 -172.30183118 85.19259021 -176 83 C-175.82597656 82.39671875 -175.65195313 81.7934375 -175.47265625 81.171875 C-174.8951187 78.5180661 -175.34741805 76.61032781 -176 74 C-175.01 74 -174.02 74 -173 74 C-173.96602293 71.98399535 -173.96602293 71.98399535 -175.1875 70.125 C-176 68 -176 68 -175.05078125 65.8671875 C-174.70402344 65.25101562 -174.35726562 64.63484375 -174 64 C-173.195625 64.48726563 -172.39125 64.97453125 -171.5625 65.4765625 C-162.70921296 70.82213844 -153.79825945 76.06505482 -144.85180664 81.25317383 C-139.6248618 84.28747857 -134.41333884 87.3419438 -129.23327637 90.45547485 C-126.6133356 92.02933782 -123.9883336 93.59465691 -121.36309814 95.15966797 C-120.08987693 95.92192992 -118.81910986 96.68830771 -117.55096436 97.45898438 C-115.76802539 98.54196609 -113.97691869 99.61011197 -112.18359375 100.67578125 C-111.15806396 101.29364502 -110.13253418 101.91150879 -109.07592773 102.5480957 C-105.55093285 104.21196939 -102.89960101 104.87917728 -99 105 C-95.89920128 103.91764668 -95.89920128 103.91764668 -92.96484375 102.0546875 C-91.83763916 101.39670166 -90.71043457 100.73871582 -89.54907227 100.06079102 C-88.34499861 99.33255141 -87.14114657 98.60394528 -85.9375 97.875 C-84.67800956 97.13102269 -83.41749702 96.38877318 -82.15600586 95.64819336 C-79.00283762 93.79184577 -75.8623583 91.91515796 -72.72497559 90.0322876 C-70.25419535 88.5536836 -67.77211889 87.09459069 -65.2890625 85.63671875 C-61.77851776 83.57396526 -58.2736291 81.50214746 -54.7734375 79.421875 C-48.5598664 75.73277278 -42.3257374 72.07908971 -36.09020996 68.42727661 C-34.20837465 67.32473023 -32.327232 66.22101131 -30.44628906 65.11694336 C-25.12300947 61.99335474 -19.79670401 58.87610033 -14.4453125 55.80078125 C-13.64714111 55.33953857 -12.84896973 54.8782959 -12.02661133 54.40307617 C-10.60265373 53.58110925 -9.17563175 52.76441631 -7.74487305 51.9543457 C-4.66529126 50.17095944 -3.01231806 49.01847709 -1 46 C-0.67370844 43.84120666 -0.67370844 43.84120666 -0.68115234 41.43676758 C-0.66128265 40.51603958 -0.64141296 39.59531158 -0.62094116 38.64668274 C-0.60938995 37.65597275 -0.59783875 36.66526276 -0.5859375 35.64453125 C-0.56657135 34.62775803 -0.5472052 33.6109848 -0.5272522 32.56340027 C-0.46743259 29.31318573 -0.42106124 26.06293583 -0.375 22.8125 C-0.33682244 20.61001052 -0.29777084 18.40753601 -0.2578125 16.20507812 C-0.16172917 10.80351817 -0.07668862 5.40186823 0 0 Z M-5.73291016 69.28833008 C-6.82394043 69.94212646 -7.9149707 70.59592285 -9.0390625 71.26953125 C-9.63315414 71.62152588 -10.22724579 71.97352051 -10.83934021 72.33618164 C-12.77382071 73.48532874 -14.69937647 74.64858304 -16.625 75.8125 C-17.94533595 76.60141941 -19.26621959 77.38942293 -20.58764648 78.17651367 C-23.19919849 79.73319947 -25.80777255 81.2947105 -28.41455078 82.859375 C-31.44609728 84.67496219 -34.49544842 86.45685048 -37.55859375 88.21875 C-38.33702637 88.66758545 -39.11545898 89.1164209 -39.91748047 89.57885742 C-41.30100757 90.37455085 -42.68660769 91.16665575 -44.07470703 91.9543457 C-48.66306818 94.61715758 -52.28266432 96.84799296 -54 102 C-54.12037869 104.56242453 -54.18803612 107.09692391 -54.203125 109.66015625 C-54.20882507 110.40583359 -54.21452515 111.15151093 -54.22039795 111.91978455 C-54.22983316 113.49411606 -54.23637606 115.0684672 -54.24023438 116.64282227 C-54.2499784 119.0571488 -54.28102954 121.47063744 -54.3125 123.88476562 C-54.31902658 125.41405744 -54.3242784 126.94335534 -54.328125 128.47265625 C-54.3404718 129.19663101 -54.3528186 129.92060577 -54.36553955 130.66651917 C-54.39035075 132.91587691 -54.39035075 132.91587691 -54 136 C-53.01 136.66 -52.02 137.32 -51 138 C-44.13005033 134.05303036 -37.26525363 130.09732743 -30.40812683 126.12812805 C-27.49343393 124.4410662 -24.5772051 122.75688521 -21.65771484 121.078125 C-18.62121936 119.33098514 -15.59115051 117.57319442 -12.5625 115.8125 C-11.64065918 115.28503174 -10.71881836 114.75756348 -9.76904297 114.21411133 C-8.91842285 113.7167749 -8.06780273 113.21943848 -7.19140625 112.70703125 C-6.45092041 112.2788208 -5.71043457 111.85061035 -4.94750977 111.40942383 C-2.60280737 109.71254945 -1.37075761 108.57609733 0 106 C0.25687989 103.09569198 0.34987291 100.41409168 0.29296875 97.515625 C0.28660149 96.29223419 0.28660149 96.29223419 0.28010559 95.04412842 C0.26334715 92.44574616 0.22570097 89.84814681 0.1875 87.25 C0.17244946 85.48568831 0.1587617 83.72136442 0.14648438 81.95703125 C0.11345301 77.63772035 0.06169086 73.3189928 0 69 C-3.00098865 67.61602386 -3.00098865 67.61602386 -5.73291016 69.28833008 Z " fill="#EFA717" transform="translate(262,105)"/>
<path d="M0 0 C0.70060547 -0.02900391 1.40121094 -0.05800781 2.12304688 -0.08789062 C12.91249912 -0.21459603 21.90015696 5.12278364 30.875 10.5625 C32.99271378 11.82161823 35.11123672 13.07937631 37.23046875 14.3359375 C38.32794434 14.98916992 39.42541992 15.64240234 40.55615234 16.31542969 C46.23152028 19.66737985 51.95963185 22.92639182 57.6875 26.1875 C58.86700858 26.86015582 60.04645163 27.53292659 61.22583008 28.20581055 C63.60500043 29.56303676 65.98448334 30.91971226 68.36425781 32.27587891 C71.91802103 34.30117703 75.4709647 36.3279081 79.0234375 38.35546875 C79.89768623 38.85443413 79.89768623 38.85443413 80.78959656 39.36347961 C84.86013982 41.68725448 88.92837486 44.01503474 92.99609375 46.34375 C97.11160008 48.69979152 101.2312845 51.04792848 105.35784912 53.38453674 C107.1415366 54.39569467 108.92338977 55.41000478 110.70458984 56.42553711 C112.90882619 57.68184169 115.11597519 58.93305641 117.32666016 60.17797852 C129.49761639 67.13855682 139.68048431 74.35566606 144.24609375 88.12890625 C146.8985623 100.34225012 145.37645267 113.67391483 139.1875 124.5625 C131.91591833 135.70156507 122.80425655 142.16886237 111.4375 148.75 C110.82575928 149.10449219 110.21401855 149.45898438 109.58374023 149.82421875 C105.18543159 152.3125 105.18543159 152.3125 102.9375 152.3125 C102.6075 136.8025 102.2775 121.2925 101.9375 105.3125 C97.32751955 106.23449609 95.05511562 107.18781135 91.125 109.53125 C90.56768188 109.86068604 90.01036377 110.19012207 89.43615723 110.52954102 C87.59927794 111.61728499 85.76852098 112.71492844 83.9375 113.8125 C82.63912507 114.58344604 81.3402886 115.35361526 80.04101562 116.12304688 C77.34195032 117.72225422 74.64490268 119.32478746 71.94921875 120.9296875 C66.38872195 124.23679732 60.80447741 127.50318726 55.22006226 130.76968384 C52.23569546 132.51556728 49.25252136 134.26348441 46.26953125 136.01171875 C45.67562088 136.35974045 45.08171051 136.70776215 44.46980286 137.06632996 C40.63087536 139.31687373 36.79543572 141.57326634 32.96200562 143.8331604 C30.31968822 145.39058726 27.67624441 146.94609661 25.03271484 148.50146484 C23.77938485 149.23960467 22.52660031 149.97867158 21.27441406 150.71875 C17.51035122 152.94324776 13.73172758 155.13987974 9.9375 157.3125 C8.75728271 158.00545166 8.75728271 158.00545166 7.55322266 158.71240234 C4.53682051 160.38215818 2.34231604 161.31353007 -1.1328125 161.3046875 C-4.69102274 160.0996403 -7.77804873 158.43181426 -10.9375 156.4375 C-11.53046875 156.08558594 -12.1234375 155.73367187 -12.734375 155.37109375 C-14.4296875 154.3203125 -14.4296875 154.3203125 -17.0625 152.3125 C-17.0625 151.3225 -17.0625 150.3325 -17.0625 149.3125 C-18.04003644 148.29053008 -19.0430881 147.29270375 -20.0625 146.3125 C-21.125 144.375 -21.125 144.375 -22.0625 142.3125 C-22.619375 141.19875 -22.619375 141.19875 -23.1875 140.0625 C-23.47625 139.485 -23.765 138.9075 -24.0625 138.3125 C-23.7325 137.9825 -23.4025 137.6525 -23.0625 137.3125 C-23.7225 136.6525 -24.3825 135.9925 -25.0625 135.3125 C-25.625 132.6875 -25.625 132.6875 -26.0625 129.3125 C-26.4028125 127.4253125 -26.4028125 127.4253125 -26.75 125.5 C-27.25707791 121.5048407 -26.56781951 118.15690743 -25.53515625 114.29296875 C-24.94643038 112.16550696 -24.94643038 112.16550696 -25.0625 109.3125 C-25.0625 107.3125 -25.0625 105.3125 -25.0625 103.3125 C-25.26875 102.466875 -25.475 101.62125 -25.6875 100.75 C-26.0625 98.3125 -26.0625 98.3125 -24.0625 95.3125 C-23.23246757 91.83572185 -23.23246757 91.83572185 -23.0625 88.3125 C-23.7225 87.3225 -24.3825 86.3325 -25.0625 85.3125 C-24.4534893 82.96345874 -23.78177295 80.63015729 -23.0625 78.3125 C-23.0254721 76.6462447 -23.01490038 74.97848681 -23.0625 73.3125 C-22.5675 72.3225 -22.5675 72.3225 -22.0625 71.3125 C-22.413125 70.19875 -22.76375 69.085 -23.125 67.9375 C-24.0625 64.3125 -24.0625 64.3125 -23.1875 61.875 C-22.81625 61.359375 -22.445 60.84375 -22.0625 60.3125 C-21.4025 60.3125 -20.7425 60.3125 -20.0625 60.3125 C-20.413125 59.508125 -20.76375 58.70375 -21.125 57.875 C-22.15260028 53.97011894 -21.93558857 51.29527072 -21.3515625 47.36328125 C-20.98997032 44.79793133 -20.90180295 42.77998234 -21.75 40.3125 C-21.853125 39.6525 -21.95625 38.9925 -22.0625 38.3125 C-20.625 36.5625 -20.625 36.5625 -19.0625 35.3125 C-19.413125 34.52875 -19.76375 33.745 -20.125 32.9375 C-21.36777077 28.13211967 -20.71262277 24.17770449 -20.0625 19.3125 C-19.89035096 17.54219122 -19.72353224 15.77135459 -19.5625 14 C-19.42908203 12.76636719 -19.42908203 12.76636719 -19.29296875 11.5078125 C-19.11374117 9.80059386 -18.98434773 8.08811444 -18.875 6.375 C-18.0625 4.3125 -18.0625 4.3125 -15.25 2.5625 C-10.09169062 0.53963358 -5.53327165 0.07351557 0 0 Z " fill="#E34E17" transform="translate(160.0625,-0.31250000000000006)"/>
<path d="M0 0 C1.05574219 0.6496875 1.05574219 0.6496875 2.1328125 1.3125 C1.4728125 1.6425 0.8128125 1.9725 0.1328125 2.3125 C0.05840573 8.30815954 0.00408888 14.30354758 -0.03198242 20.29956055 C-0.04702697 22.33736862 -0.06746762 24.37514454 -0.09350586 26.4128418 C-0.13007997 29.34952756 -0.14695749 32.28578351 -0.16015625 35.22265625 C-0.17564011 36.12709976 -0.19112396 37.03154327 -0.20707703 37.96339417 C-0.20853991 43.517901 0.27260497 47.48874333 3.1328125 52.3125 C5.73970104 54.50585843 5.73970104 54.50585843 8.89453125 56.1015625 C10.01279297 56.73320312 11.13105469 57.36484375 12.28320312 58.015625 C13.46103351 58.65846476 14.64008719 59.29906788 15.8203125 59.9375 C18.15017027 61.20044316 20.46118319 62.48602739 22.76953125 63.7890625 C23.79780029 64.34674316 24.82606934 64.90442383 25.88549805 65.47900391 C28.1328125 67.3125 28.1328125 67.3125 28.46801758 70.03271484 C28.3573999 70.78504395 28.24678223 71.53737305 28.1328125 72.3125 C28.7928125 72.6425 29.4528125 72.9725 30.1328125 73.3125 C30.1328125 73.9725 30.1328125 74.6325 30.1328125 75.3125 C30.7928125 75.6425 31.4528125 75.9725 32.1328125 76.3125 C31.8028125 76.9725 31.4728125 77.6325 31.1328125 78.3125 C30.4728125 78.3125 29.8128125 78.3125 29.1328125 78.3125 C27.97469862 81.25979537 27.97469862 81.25979537 28.1328125 84.3125 C25.1328125 85.3125 25.1328125 85.3125 22.8203125 84.21679688 C21.9334375 83.66056641 21.0465625 83.10433594 20.1328125 82.53125 C19.1634375 81.93699219 18.1940625 81.34273438 17.1953125 80.73046875 C15.15364583 79.45182292 13.11197917 78.17317708 11.0703125 76.89453125 C10.1009375 76.30027344 9.1315625 75.70601563 8.1328125 75.09375 C7.2459375 74.53751953 6.3590625 73.98128906 5.4453125 73.40820312 C3.06113083 71.95195834 3.06113083 71.95195834 0.1328125 73.3125 C0.05821016 77.74158378 0.00399879 82.1703269 -0.03198242 86.59985352 C-0.04699472 88.10415017 -0.06741103 89.60840361 -0.09350586 91.11254883 C-0.13022566 93.28477696 -0.14698911 95.45642251 -0.16015625 97.62890625 C-0.18372192 99.58485718 -0.18372192 99.58485718 -0.20776367 101.58032227 C0.17862249 105.81450524 1.04343254 108.60930583 3.1328125 112.3125 C5.70640489 114.50448056 5.70640489 114.50448056 8.82421875 116.1015625 C10.48807617 117.04902344 10.48807617 117.04902344 12.18554688 118.015625 C13.35447168 118.65806751 14.52440598 119.29867647 15.6953125 119.9375 C17.99885721 121.20443371 20.28774608 122.49086743 22.57421875 123.7890625 C23.59201416 124.34674316 24.60980957 124.90442383 25.65844727 125.47900391 C28.481313 127.57073767 29.22353547 128.96181586 30.1328125 132.3125 C30.1328125 132.9725 30.1328125 133.6325 30.1328125 134.3125 C30.7928125 135.3025 31.4528125 136.2925 32.1328125 137.3125 C31.83254133 138.98543936 31.49723483 140.65235384 31.1328125 142.3125 C31.53220017 144.41071215 31.53220017 144.41071215 32.1328125 146.3125 C32.1328125 147.3025 32.1328125 148.2925 32.1328125 149.3125 C31.4728125 149.9725 30.8128125 150.6325 30.1328125 151.3125 C30.9092057 154.3870356 30.9092057 154.3870356 33.1328125 156.3125 C32.8028125 156.9725 32.4728125 157.6325 32.1328125 158.3125 C31.4728125 158.3125 30.8128125 158.3125 30.1328125 158.3125 C28.82766514 160.53026622 28.82766514 160.53026622 28.1328125 163.3125 C29.30675707 165.99131567 29.30675707 165.99131567 31.1328125 168.3125 C31.7928125 169.3025 32.4528125 170.2925 33.1328125 171.3125 C31.1528125 172.3025 31.1528125 172.3025 29.1328125 173.3125 C30.24460413 176.64787489 31.60692548 177.94957344 34.1328125 180.3125 C31.1328125 182.3125 31.1328125 182.3125 27.1328125 182.3125 C24.4699707 181.09423828 24.4699707 181.09423828 21.43359375 179.3828125 C19.75511353 178.44393188 19.75511353 178.44393188 18.04272461 177.48608398 C16.8434041 176.80354436 15.64427031 176.12067654 14.4453125 175.4375 C13.21979092 174.74692945 11.99395915 174.0569091 10.76782227 173.36743164 C2.0510317 168.45363004 -6.61278832 163.45051416 -15.1953125 158.30566406 C-16.73229016 157.39263469 -18.28351535 156.50370226 -19.8359375 155.6171875 C-30.65481662 149.39307331 -39.00571491 141.8938777 -42.44490242 129.45502663 C-43.3005824 125.11360603 -43.17069839 120.7132427 -43.17358398 116.3034668 C-43.1819075 115.21635406 -43.19023102 114.12924133 -43.19880676 113.00918579 C-43.22283986 109.42666001 -43.2316706 105.84431652 -43.23828125 102.26171875 C-43.24725227 99.76219123 -43.25637421 97.26266426 -43.26564026 94.76313782 C-43.28211435 89.52706151 -43.28986033 84.29102947 -43.29272461 79.05493164 C-43.29595587 73.69016905 -43.31708651 68.32581472 -43.35424805 62.96118164 C-43.398539 56.46913206 -43.41819078 49.97746653 -43.41945076 43.48526955 C-43.42364574 41.01781258 -43.43605078 38.55035489 -43.45696831 36.08298302 C-43.48395387 32.62478134 -43.4790347 29.16797152 -43.46655273 25.7097168 C-43.48138702 24.70003342 -43.49622131 23.69035004 -43.51150513 22.65007019 C-43.42846341 14.53245307 -41.05467598 8.14485609 -35.83984375 1.875 C-35.20949219 1.359375 -34.57914063 0.84375 -33.9296875 0.3125 C-33.30191406 -0.22375 -32.67414062 -0.76 -32.02734375 -1.3125 C-21.80950438 -7.81644115 -9.94655336 -5.60954445 0 0 Z " fill="#EB5809" transform="translate(58.8671875,101.6875)"/>
<path d="M0 0 C0.70060547 -0.02900391 1.40121094 -0.05800781 2.12304688 -0.08789062 C12.94518685 -0.21497989 22.06383346 5.19387121 31.125 10.5625 C32.55295898 11.39394531 32.55295898 11.39394531 34.00976562 12.2421875 C36.3237923 13.59106737 38.63276566 14.9478251 40.9375 16.3125 C40.67708333 18.3063151 40.41666667 20.30013021 40.15625 22.29394531 C39.88811971 24.42976998 39.88811971 24.42976998 39.9375 27.0625 C39.9375 29.32069618 39.57663981 31.15540315 38.9375 33.3125 C39.5975 33.6425 40.2575 33.9725 40.9375 34.3125 C40.4425 34.725 39.9475 35.1375 39.4375 35.5625 C37.50363908 37.43452338 37.50363908 37.43452338 37.9375 41.3125 C38.5975 41.6425 39.2575 41.9725 39.9375 42.3125 C39.9375 42.9725 39.9375 43.6325 39.9375 44.3125 C38.9475 44.8075 38.9475 44.8075 37.9375 45.3125 C37.86464889 47.86228889 37.87905954 50.07873816 38.5 52.5625 C39.1361833 56.56136646 38.50201294 60.32617019 37.9375 64.3125 C37.2775 64.3125 36.6175 64.3125 35.9375 64.3125 C36.9275 67.7775 36.9275 67.7775 37.9375 71.3125 C36.9475 71.8075 36.9475 71.8075 35.9375 72.3125 C37.2464572 75.43447478 37.2464572 75.43447478 39.9375 77.3125 C39.6875 79.1875 39.6875 79.1875 38.9375 81.3125 C36.875 82.5625 36.875 82.5625 34.9375 83.3125 C35.9275 83.8075 35.9275 83.8075 36.9375 84.3125 C35.9475 84.8075 35.9475 84.8075 34.9375 85.3125 C35.2159375 86.92125 35.2159375 86.92125 35.5 88.5625 C35.87858259 91.80749367 35.89515864 93.33311758 34.9375 96.3125 C34.9375 97.3025 34.9375 98.2925 34.9375 99.3125 C34.4425 100.7975 34.4425 100.7975 33.9375 102.3125 C34.81233915 104.47965557 34.81233915 104.47965557 35.9375 106.3125 C35.2775 107.3025 34.6175 108.2925 33.9375 109.3125 C33.65685472 112.7107638 33.65685472 112.7107638 33.75 116.4375 C33.75966797 118.32855469 33.75966797 118.32855469 33.76953125 120.2578125 C33.58989885 123.18730452 33.58989885 123.18730452 34.9375 124.3125 C33.9375 127.3125 33.9375 127.3125 32.8125 129.25 C31.76089932 131.72877302 32.04897236 132.82462261 32.9375 135.3125 C33.5975 135.3125 34.2575 135.3125 34.9375 135.3125 C33.9375 137.3125 33.9375 137.3125 30.9375 139.3125 C32.8629644 140.4615712 32.8629644 140.4615712 34.9375 140.3125 C35.5975 140.6425 36.2575 140.9725 36.9375 141.3125 C33.56320811 143.3621413 30.1858029 145.406548 26.80566406 147.4465332 C25.10322131 148.47539041 23.40314256 149.50815612 21.703125 150.54101562 C3.89375374 161.27901888 3.89375374 161.27901888 -1.2578125 161.3671875 C-4.72075941 160.06496513 -7.82081984 158.40481621 -10.9375 156.4375 C-11.53046875 156.08558594 -12.1234375 155.73367187 -12.734375 155.37109375 C-14.4296875 154.3203125 -14.4296875 154.3203125 -17.0625 152.3125 C-17.0625 151.3225 -17.0625 150.3325 -17.0625 149.3125 C-18.04003644 148.29053008 -19.0430881 147.29270375 -20.0625 146.3125 C-21.125 144.375 -21.125 144.375 -22.0625 142.3125 C-22.619375 141.19875 -22.619375 141.19875 -23.1875 140.0625 C-23.47625 139.485 -23.765 138.9075 -24.0625 138.3125 C-23.7325 137.9825 -23.4025 137.6525 -23.0625 137.3125 C-23.7225 136.6525 -24.3825 135.9925 -25.0625 135.3125 C-25.625 132.6875 -25.625 132.6875 -26.0625 129.3125 C-26.4028125 127.4253125 -26.4028125 127.4253125 -26.75 125.5 C-27.25707791 121.5048407 -26.56781951 118.15690743 -25.53515625 114.29296875 C-24.94643038 112.16550696 -24.94643038 112.16550696 -25.0625 109.3125 C-25.0625 107.3125 -25.0625 105.3125 -25.0625 103.3125 C-25.26875 102.466875 -25.475 101.62125 -25.6875 100.75 C-26.0625 98.3125 -26.0625 98.3125 -24.0625 95.3125 C-23.23246757 91.83572185 -23.23246757 91.83572185 -23.0625 88.3125 C-23.7225 87.3225 -24.3825 86.3325 -25.0625 85.3125 C-24.4534893 82.96345874 -23.78177295 80.63015729 -23.0625 78.3125 C-23.0254721 76.6462447 -23.01490038 74.97848681 -23.0625 73.3125 C-22.5675 72.3225 -22.5675 72.3225 -22.0625 71.3125 C-22.413125 70.19875 -22.76375 69.085 -23.125 67.9375 C-24.0625 64.3125 -24.0625 64.3125 -23.1875 61.875 C-22.81625 61.359375 -22.445 60.84375 -22.0625 60.3125 C-21.4025 60.3125 -20.7425 60.3125 -20.0625 60.3125 C-20.413125 59.508125 -20.76375 58.70375 -21.125 57.875 C-22.15260028 53.97011894 -21.93558857 51.29527072 -21.3515625 47.36328125 C-20.98997032 44.79793133 -20.90180295 42.77998234 -21.75 40.3125 C-21.853125 39.6525 -21.95625 38.9925 -22.0625 38.3125 C-20.625 36.5625 -20.625 36.5625 -19.0625 35.3125 C-19.413125 34.52875 -19.76375 33.745 -20.125 32.9375 C-21.36777077 28.13211967 -20.71262277 24.17770449 -20.0625 19.3125 C-19.89035096 17.54219122 -19.72353224 15.77135459 -19.5625 14 C-19.42908203 12.76636719 -19.42908203 12.76636719 -19.29296875 11.5078125 C-19.11374117 9.80059386 -18.98434773 8.08811444 -18.875 6.375 C-18.0625 4.3125 -18.0625 4.3125 -15.25 2.5625 C-10.09169062 0.53963358 -5.53327165 0.07351557 0 0 Z M34.9375 77.3125 C35.5975 77.9725 36.2575 78.6325 36.9375 79.3125 C36.9375 78.6525 36.9375 77.9925 36.9375 77.3125 C36.2775 77.3125 35.6175 77.3125 34.9375 77.3125 Z " fill="#E76618" transform="translate(160.0625,-0.31250000000000006)"/>
<path d="M0 0 C20.77149219 11.82086738 41.45651275 23.78689371 62 36 C61.34 37.65 60.68 39.3 60 41 C60.66 41.66 61.32 42.32 62 43 C61.34 43 60.68 43 60 43 C60.37125 43.763125 60.7425 44.52625 61.125 45.3125 C61.41375 46.199375 61.7025 47.08625 62 48 C61.34 48.99 60.68 49.98 60 51 C60.66 52.32 61.32 53.64 62 55 C61.34 55 60.68 55 60 55 C60.2475 56.3921875 60.2475 56.3921875 60.5 57.8125 C61.35820896 63.28358209 61.35820896 63.28358209 60 66 C60.33 66.99 60.66 67.98 61 69 C60.835 69.639375 60.67 70.27875 60.5 70.9375 C59.83326318 72.99077404 59.83326318 72.99077404 60.5 75 C61 77 61 77 60.4375 79 C59.86333986 81.62473206 60.63831556 82.75722562 62 85 C61.34 85.66 60.68 86.32 60 87 C60.28566879 89.35065178 60.28566879 89.35065178 61 92 C62.2416388 97.53093645 62.2416388 97.53093645 60.9375 100.0625 C60.628125 100.701875 60.31875 101.34125 60 102 C60.61674772 103.68577711 61.28272222 105.35448038 62 107 C61.505 108.485 61.505 108.485 61 110 C61.185625 110.804375 61.37125 111.60875 61.5625 112.4375 C62.08708823 115.51008821 61.35115141 116.29769718 60 119 C60.27942455 120.67654729 60.60828247 122.34608154 61 124 C60.67 124.66 60.34 125.32 60 126 C60.99 126.495 60.99 126.495 62 127 C61.67 127.99 61.34 128.98 61 130 C60.84188612 133.05270463 60.84188612 133.05270463 62 136 C61.34 136.66 60.68 137.32 60 138 C60.66 139.65 61.32 141.3 62 143 C61.34 143.66 60.68 144.32 60 145 C60.33 145.66 60.66 146.32 61 147 C60.34 147.66 59.68 148.32 59 149 C50.98280044 145.10630901 43.22698776 140.92048847 35.5625 136.375 C33.48094726 135.15022806 31.39890526 133.9262873 29.31640625 132.703125 C27.75237061 131.78370117 27.75237061 131.78370117 26.15673828 130.84570312 C21.12463643 127.90349972 16.0642204 125.01147009 11 122.125 C10.09193604 121.60728027 9.18387207 121.08956055 8.24829102 120.55615234 C6.1660496 119.36984653 4.08334069 118.18437392 2 117 C2 115.68 2 114.36 2 113 C3.485 112.505 3.485 112.505 5 112 C4.360625 111.401875 3.72125 110.80375 3.0625 110.1875 C1 108 1 108 0 105 C1.98 104.505 1.98 104.505 4 104 C3.525625 103.5875 3.05125 103.175 2.5625 102.75 C0.08577934 99.97607286 0 97.6461404 0 94 C1 92 2 90 3 88 C2.34 87.67 1.68 87.34 1 87 C1.61277612 84.03824877 2.25372522 82.61941217 4 80 C3.4740625 79.13375 3.4740625 79.13375 2.9375 78.25 C1.81867044 75.56480906 2.2348081 74.72068232 3 72 C2.53804407 68.95109085 1.77480418 67.66220627 0 65 C0 64.34 0 63.68 0 63 C-0.66 62.34 -1.32 61.68 -2 61 C1 60 1 60 3.32836914 61.09570312 C4.66822876 61.93004883 4.66822876 61.93004883 6.03515625 62.78125 C7.00904297 63.37550781 7.98292969 63.96976563 8.98632812 64.58203125 C10.00146484 65.21496094 11.01660156 65.84789062 12.0625 66.5 C14.06977316 67.74676928 16.08128647 68.98674673 18.09765625 70.21875 C19.43582397 71.0530957 19.43582397 71.0530957 20.80102539 71.90429688 C21.52668701 72.26587891 22.25234863 72.62746094 23 73 C23.99 72.505 23.99 72.505 25 72 C25.04957858 67.39186151 25.08580385 62.78387963 25.10986328 58.17553711 C25.11989726 56.60910333 25.13352754 55.04268817 25.15087891 53.47631836 C25.17524225 51.21984247 25.18650916 48.96361506 25.1953125 46.70703125 C25.20563507 46.01100296 25.21595764 45.31497467 25.22659302 44.59785461 C25.22750313 40.61965644 24.83357978 37.55094387 23 34 C21.37915347 32.43920694 21.37915347 32.43920694 19.3125 31.25 C18.52617188 30.75757813 17.73984375 30.26515625 16.9296875 29.7578125 C15.96289062 29.17773438 14.99609375 28.59765625 14 28 C12.69001109 27.20588269 11.38012211 26.41160051 10.0703125 25.6171875 C6.39066399 23.39364029 2.69816882 21.19259021 -1 19 C-0.82597656 18.39671875 -0.65195313 17.7934375 -0.47265625 17.171875 C0.1048813 14.5180661 -0.34741805 12.61032781 -1 10 C-0.01 10 0.98 10 2 10 C1.02876119 7.99360863 1.02876119 7.99360863 -0.125 6.125 C-1.17534644 3.57415864 -0.76534022 2.57628609 0 0 Z " fill="#EE9216" transform="translate(87,169)"/>
<path d="M0 0 C0.625 2.875 0.625 2.875 1 6 C0.34 6.66 -0.32 7.32 -1 8 C-1.95579325 11.89789131 -1.95579325 11.89789131 -1.52734375 15.8203125 C-0.85732854 18.58970871 -0.86788223 21.15289062 -0.875 24 C-0.87113281 25.546875 -0.87113281 25.546875 -0.8671875 27.125 C-0.98277765 29.62718668 -1.346488 31.605415 -2 34 C-2.19390924 35.55935347 -2.35887158 37.12248665 -2.5 38.6875 C-2.62568359 39.99267578 -2.62568359 39.99267578 -2.75390625 41.32421875 C-2.91503287 43.076151 -3.06895918 44.82876399 -3.21484375 46.58203125 C-3.28832031 47.37996094 -3.36179687 48.17789063 -3.4375 49 C-3.49808594 49.721875 -3.55867188 50.44375 -3.62109375 51.1875 C-4 53 -4 53 -6 55 C-5.72793135 56.6777567 -5.38499891 58.34450469 -5 60 C-5.0825 60.825 -5.165 61.65 -5.25 62.5 C-4.88008666 66.19913337 -2.64749456 67.55106753 0 70 C0 70.66 0 71.32 0 72 C1.485 72.495 1.485 72.495 3 73 C3.33 73.99 3.66 74.98 4 76 C6.19996683 78.31575456 8.47536148 80.51154344 10.8125 82.6875 C12 84 12 84 12 86 C7.82123469 85.40548737 4.84553148 83.9849592 1.2109375 81.8671875 C0.10363281 81.22523437 -1.00367187 80.58328125 -2.14453125 79.921875 C-2.71768066 79.58478516 -3.29083008 79.24769531 -3.88134766 78.90039062 C-5.59509666 77.89258527 -7.31508279 76.89541021 -9.03515625 75.8984375 C-15.35960852 72.21343872 -21.59019261 68.41251289 -27.74047852 64.44360352 C-35.33985861 59.58837559 -42.13743009 59.11575266 -51 60 C-57.74270181 61.64170131 -62.2530744 65.21148032 -66 71 C-67.18678647 73.31063729 -68.10147258 75.55400869 -69 78 C-69.33 78 -69.66 78 -70 78 C-70.11786788 74.06275931 -70.18780174 70.12598239 -70.25 66.1875 C-70.28351563 65.08728516 -70.31703125 63.98707031 -70.3515625 62.85351562 C-70.4795292 52.0083382 -67.85889114 43.72536316 -61.171875 35.16796875 C-54.38308637 28.39139017 -45.99038581 23.96655907 -37.6875 19.3125 C-35.81527138 18.25656011 -33.94394354 17.19903856 -32.07278442 16.14120483 C-30.82710309 15.43698999 -29.58107196 14.73339351 -28.33468628 14.03042603 C-24.55946769 11.8973719 -20.81131311 9.72455053 -17.08203125 7.51171875 C-16.21296143 6.99762451 -15.3438916 6.48353027 -14.44848633 5.95385742 C-12.85707686 5.00891342 -11.26943249 4.05758922 -9.6862793 3.09887695 C-8.98543213 2.68468506 -8.28458496 2.27049316 -7.5625 1.84375 C-6.96566406 1.48474609 -6.36882812 1.12574219 -5.75390625 0.75585938 C-4 0 -4 0 0 0 Z " fill="#EFA017" transform="translate(86,38)"/>
<path d="M0 0 C0.66572021 0.40742432 1.33144043 0.81484863 2.01733398 1.23461914 C13.05860054 8.11838007 20.64008722 15.8086959 23.6875 28.875 C24.98998547 45.16452601 21.86905717 58.2444781 11.4375 71.0625 C5.43218253 77.59115668 -2.20523922 81.9080395 -9.8125 86.3125 C-10.42424072 86.66699219 -11.03598145 87.02148438 -11.66625977 87.38671875 C-16.06456841 89.875 -16.06456841 89.875 -18.3125 89.875 C-18.3125 73.705 -18.3125 57.535 -18.3125 40.875 C-18.9725 40.545 -19.6325 40.215 -20.3125 39.875 C-19.97605469 39.318125 -19.63960938 38.76125 -19.29296875 38.1875 C-18.12449231 35.43157151 -18.2518164 33.82449926 -18.625 30.875 C-18.72425781 30.029375 -18.82351563 29.18375 -18.92578125 28.3125 C-19.2541862 25.90201796 -19.2541862 25.90201796 -19.9453125 23.734375 C-20.3125 21.875 -20.3125 21.875 -18.875 19.125 C-18.1015625 18.01125 -18.1015625 18.01125 -17.3125 16.875 C-17.9725 15.885 -18.6325 14.895 -19.3125 13.875 C-19.3125 10.54166667 -19.3125 7.20833333 -19.3125 3.875 C-16.3125 4.875 -16.3125 4.875 -15.3125 5.875 C-15.3125 4.885 -15.3125 3.895 -15.3125 2.875 C-16.6325 2.215 -17.9525 1.555 -19.3125 0.875 C-18.625 -1.5625 -18.625 -1.5625 -17.3125 -4.125 C-10.78191537 -6.59603202 -5.53385515 -3.39588526 0 0 Z " fill="#DF3617" transform="translate(281.3125,62.125)"/>
<path d="M0 0 C2.64 1.32 5.28 2.64 8 4 C7.01 4.495 7.01 4.495 6 5 C5.92559323 10.99565954 5.87127638 16.99104758 5.83520508 22.98706055 C5.82016053 25.02486862 5.79971988 27.06264454 5.77368164 29.1003418 C5.73710753 32.03702756 5.72023001 34.97328351 5.70703125 37.91015625 C5.69154739 38.81459976 5.67606354 39.71904327 5.66011047 40.65089417 C5.65864759 46.205401 6.13979247 50.17624333 9 55 C11.60688854 57.19335843 11.60688854 57.19335843 14.76171875 58.7890625 C15.87998047 59.42070312 16.99824219 60.05234375 18.15039062 60.703125 C19.32822101 61.34596476 20.50727469 61.98656788 21.6875 62.625 C24.01735777 63.88794316 26.32837069 65.17352739 28.63671875 66.4765625 C30.17912231 67.3130835 30.17912231 67.3130835 31.75268555 68.16650391 C34 70 34 70 34.33520508 72.72021484 C34.16927856 73.8487085 34.16927856 73.8487085 34 75 C34.99 75.495 34.99 75.495 36 76 C36 76.66 36 77.32 36 78 C36.99 78.495 36.99 78.495 38 79 C37.67 79.66 37.34 80.32 37 81 C36.34 81 35.68 81 35 81 C33.84188612 83.94729537 33.84188612 83.94729537 34 87 C31 88 31 88 28.6875 86.90429688 C27.3571875 86.06995117 27.3571875 86.06995117 26 85.21875 C25.030625 84.62449219 24.06125 84.03023438 23.0625 83.41796875 C21.02083333 82.13932292 18.97916667 80.86067708 16.9375 79.58203125 C15.968125 78.98777344 14.99875 78.39351563 14 77.78125 C12.6696875 76.9469043 12.6696875 76.9469043 11.3125 76.09570312 C8.92831833 74.63945834 8.92831833 74.63945834 6 76 C5.92539766 80.42908378 5.87118629 84.8578269 5.83520508 89.28735352 C5.82019278 90.79165017 5.79977647 92.29590361 5.77368164 93.80004883 C5.73696184 95.97227696 5.72019839 98.14392251 5.70703125 100.31640625 C5.6913208 101.62037354 5.67561035 102.92434082 5.65942383 104.26782227 C6.04580999 108.50200524 6.91062004 111.29680583 9 115 C11.57359239 117.19198056 11.57359239 117.19198056 14.69140625 118.7890625 C16.35526367 119.73652344 16.35526367 119.73652344 18.05273438 120.703125 C19.22165918 121.34556751 20.39159348 121.98617647 21.5625 122.625 C23.86604471 123.89193371 26.15493358 125.17836743 28.44140625 126.4765625 C29.96809937 127.3130835 29.96809937 127.3130835 31.52563477 128.16650391 C34.3485005 130.25823767 35.09072297 131.64931586 36 135 C36 135.66 36 136.32 36 137 C36.66 137.99 37.32 138.98 38 140 C37.69972883 141.67293936 37.36442233 143.33985384 37 145 C37.39938767 147.09821215 37.39938767 147.09821215 38 149 C38 149.99 38 150.98 38 152 C37.34 152.66 36.68 153.32 36 154 C36.7763932 157.0745356 36.7763932 157.0745356 39 159 C38.67 159.66 38.34 160.32 38 161 C37.34 161 36.68 161 36 161 C34.69485264 163.21776622 34.69485264 163.21776622 34 166 C35.17394457 168.67881567 35.17394457 168.67881567 37 171 C37.66 171.99 38.32 172.98 39 174 C37.02 174.99 37.02 174.99 35 176 C36.11179163 179.33537489 37.47411298 180.63707344 40 183 C37 185 37 185 33 185 C30.19433594 183.70239258 30.19433594 183.70239258 26.984375 181.89453125 C26.40971497 181.57344894 25.83505493 181.25236664 25.24298096 180.92155457 C23.40743349 179.89307401 21.57887742 178.85278553 19.75 177.8125 C18.53556796 177.13142682 17.32072781 176.45108079 16.10546875 175.77148438 C9.9727043 172.32908366 3.92261146 168.79371257 -2 165 C-1.649375 164.38125 -1.29875 163.7625 -0.9375 163.125 C-0.628125 162.42375 -0.31875 161.7225 0 161 C-0.33 160.34 -0.66 159.68 -1 159 C-0.525625 158.278125 -0.05125 157.55625 0.4375 156.8125 C2.38180229 153.31275589 2.29795856 150.94795089 2 147 C1.67 146.34 1.34 145.68 1 145 C1.165 143.906875 1.33 142.81375 1.5 141.6875 C1.9664164 138.24767906 1.69658405 136.30877426 1 133 C1.31802943 131.33034549 1.64984951 129.66321482 2 128 C1.67 127.01 1.34 126.02 1 125 C1.185625 124.236875 1.37125 123.47375 1.5625 122.6875 C2.11795497 119.2754195 1.16342717 117.21653394 0 114 C0 111 0 108 0 105 C0.66 105 1.32 105 2 105 C2.45496035 99.23716896 0.79099852 94.39431697 -1 89 C-0.34 89 0.32 89 1 89 C2.03353017 81.46232456 2.03353017 81.46232456 1 74 C0.3125 70.8125 0.3125 70.8125 0 68 C0.99 67.01 0.99 67.01 2 66 C1.2236068 62.9254644 1.2236068 62.9254644 -1 61 C-0.01 60.505 -0.01 60.505 1 60 C0.67 58.35 0.34 56.7 0 55 C0.99 54.505 0.99 54.505 2 54 C2.16955836 48.21859203 2.16955836 48.21859203 1.5 42.5 C0.87140547 39.35702734 0.97389443 36.37893217 1.0625 33.18359375 C0.99936388 30.97777571 0.61336857 29.11324642 0 27 C0.66 27 1.32 27 2 27 C1.814375 25.9275 1.62875 24.855 1.4375 23.75 C1.04074031 20.3492027 1.15104969 19.1128178 2 16 C2.09306187 13.32705635 2.04459647 10.67578811 2 8 C1.34 8 0.68 8 0 8 C-0.79953138 4.71303767 -1.09658936 3.28976808 0 0 Z " fill="#EC6C0E" transform="translate(53,99)"/>
<path d="M0 0 C5.16853768 2.94260954 5.16853768 2.94260954 7.65673828 4.37182617 C11.47701432 6.56589721 15.31054322 8.73275569 19.16015625 10.875 C20.8985572 11.85395414 22.6368396 12.83311882 24.375 13.8125 C25.65080933 14.51403198 25.65080933 14.51403198 26.95239258 15.22973633 C27.7389624 15.67599365 28.52553223 16.12225098 29.3359375 16.58203125 C30.04282715 16.97624268 30.7497168 17.3704541 31.47802734 17.77661133 C31.98027832 18.18032959 32.4825293 18.58404785 33 19 C33 19.99 33 20.98 33 22 C33.66 22.99 34.32 23.98 35 25 C34.505 26.485 34.505 26.485 34 28 C34.66 28.99 35.32 29.98 36 31 C35.1875 33.875 35.1875 33.875 34 37 C32.67277664 42.41814705 32.67277664 42.41814705 34.5 47.5 C36 50 36 50 36 53 C35.01 53.495 35.01 53.495 34 54 C32.86581572 58.25319104 32.93593758 60.21588557 35 64 C36.4382786 72.198188 36.4382786 72.198188 35.4375 76.3125 C34.92787495 79.44305386 35.45976256 81.89363469 36 85 C35.505 86.485 35.505 86.485 35 88 C35.165 89.11375 35.33 90.2275 35.5 91.375 C35.96594397 94.75309381 35.72293667 96.74678497 35 100 C35.33 100.99 35.66 101.98 36 103 C35.01 103.66 34.02 104.32 33 105 C33.185625 105.886875 33.37125 106.77375 33.5625 107.6875 C33.98827996 110.91126255 33.64160475 112.87217684 33 116 C33.33652369 118.51599015 33.33652369 118.51599015 34 121 C34.88408594 125.12573438 35 128.76719243 35 133 C34.34 133.66 33.68 134.32 33 135 C32.30962646 134.5968457 31.61925293 134.19369141 30.90795898 133.77832031 C27.75133393 131.93521334 24.59441945 130.09260267 21.4375 128.25 C20.35146484 127.61578125 19.26542969 126.9815625 18.14648438 126.328125 C12.77761392 123.19492401 7.40485022 120.07076139 2 117 C2 115.68 2 114.36 2 113 C3.485 112.505 3.485 112.505 5 112 C4.360625 111.401875 3.72125 110.80375 3.0625 110.1875 C1 108 1 108 0 105 C1.98 104.505 1.98 104.505 4 104 C3.525625 103.5875 3.05125 103.175 2.5625 102.75 C0.08577934 99.97607286 0 97.6461404 0 94 C1 92 2 90 3 88 C2.34 87.67 1.68 87.34 1 87 C1.61277612 84.03824877 2.25372522 82.61941217 4 80 C3.4740625 79.13375 3.4740625 79.13375 2.9375 78.25 C1.81867044 75.56480906 2.2348081 74.72068232 3 72 C2.53804407 68.95109085 1.77480418 67.66220627 0 65 C0 64.34 0 63.68 0 63 C-0.66 62.34 -1.32 61.68 -2 61 C1 60 1 60 3.32836914 61.09570312 C4.66822876 61.93004883 4.66822876 61.93004883 6.03515625 62.78125 C7.00904297 63.37550781 7.98292969 63.96976563 8.98632812 64.58203125 C10.00146484 65.21496094 11.01660156 65.84789062 12.0625 66.5 C14.06977316 67.74676928 16.08128647 68.98674673 18.09765625 70.21875 C19.43582397 71.0530957 19.43582397 71.0530957 20.80102539 71.90429688 C21.52668701 72.26587891 22.25234863 72.62746094 23 73 C23.99 72.505 23.99 72.505 25 72 C25.04957858 67.39186151 25.08580385 62.78387963 25.10986328 58.17553711 C25.11989726 56.60910333 25.13352754 55.04268817 25.15087891 53.47631836 C25.17524225 51.21984247 25.18650916 48.96361506 25.1953125 46.70703125 C25.20563507 46.01100296 25.21595764 45.31497467 25.22659302 44.59785461 C25.22750313 40.61965644 24.83357978 37.55094387 23 34 C21.37915347 32.43920694 21.37915347 32.43920694 19.3125 31.25 C18.52617188 30.75757813 17.73984375 30.26515625 16.9296875 29.7578125 C15.96289062 29.17773438 14.99609375 28.59765625 14 28 C12.69001109 27.20588269 11.38012211 26.41160051 10.0703125 25.6171875 C6.39066399 23.39364029 2.69816882 21.19259021 -1 19 C-0.82597656 18.39671875 -0.65195313 17.7934375 -0.47265625 17.171875 C0.1048813 14.5180661 -0.34741805 12.61032781 -1 10 C-0.01 10 0.98 10 2 10 C1.02876119 7.99360863 1.02876119 7.99360863 -0.125 6.125 C-1.17534644 3.57415864 -0.76534022 2.57628609 0 0 Z " fill="#EC8115" transform="translate(87,169)"/>
<path d="M0 0 C1.78627618 2.7319518 2.01573176 3.86628002 1.625 7.1875 C1.315625 8.5796875 1.315625 8.5796875 1 10 C1 10.33 1 10.66 1 11 C1 13.87591303 0.60061161 16.19851708 0 19 C-0.38361817 20.8524028 -0.75847403 22.70663962 -1.125 24.5625 C-1.31320313 25.49191406 -1.50140625 26.42132813 -1.6953125 27.37890625 C-1.99665414 29.97121699 -1.65070433 31.52294907 -1 34 C-2.4375 35.75 -2.4375 35.75 -4 37 C-3.34 37.33 -2.68 37.66 -2 38 C-2.85900783 46.38903394 -2.85900783 46.38903394 -3.5625 49.4375 C-4.14374739 52.84194901 -4.02246223 56.1513758 -3.9375 59.59765625 C-3.99780868 61.91577126 -4.430406 63.76577856 -5 66 C-5.0658384 67.51955038 -5.08565939 69.04170031 -5.0625 70.5625 C-5.05347656 71.32691406 -5.04445313 72.09132813 -5.03515625 72.87890625 C-5.02355469 73.57886719 -5.01195313 74.27882813 -5 75 C-5 78 -5 78 -6 80.25 C-7.26797045 83.73691874 -7.40205949 86.31445465 -7 90 C-5.08333079 92.25065102 -5.08333079 92.25065102 -3 94 C-3 94.99 -3 95.98 -3 97 C-1.515 97.495 -1.515 97.495 0 98 C0 98.99 0 99.98 0 101 C0.66 101.33 1.32 101.66 2 102 C2 104 2 106 2 108 C-2.97209562 106.23570801 -7.43438061 103.6060834 -12 101 C-11.505 99.515 -11.505 99.515 -11 98 C-11.556875 97.773125 -12.11375 97.54625 -12.6875 97.3125 C-15.71572375 95.59377841 -17.77323664 93.67211603 -20 91 C-19.8125 88.6875 -19.8125 88.6875 -19 87 C-20.32 86.67 -21.64 86.34 -23 86 C-23 85.34 -23 84.68 -23 84 C-24.010625 83.2575 -25.02125 82.515 -26.0625 81.75 C-27.734375 80.421875 -27.734375 80.421875 -29 79 C-28.8125 76 -28.8125 76 -28 73 C-28.185625 72.113125 -28.37125 71.22625 -28.5625 70.3125 C-29 68 -29 68 -27 65 C-26.5769311 62.83000806 -26.5769311 62.83000806 -26.4375 60.4375 C-26.36402344 59.55578125 -26.29054688 58.6740625 -26.21484375 57.765625 C-26.10849609 56.39664063 -26.10849609 56.39664063 -26 55 C-25.83873697 53.2286664 -25.67225954 51.45779803 -25.5 49.6875 C-25.4278125 48.90761719 -25.355625 48.12773438 -25.28125 47.32421875 C-25 45 -25 45 -24.47265625 42.55859375 C-23.95793715 39.77230443 -23.90240474 37.20601758 -23.9375 34.375 C-23.94652344 33.43398438 -23.95554687 32.49296875 -23.96484375 31.5234375 C-23.97644531 30.69070312 -23.98804687 29.85796875 -24 29 C-24 25 -24 21 -24 17 C-23.34 16.67 -22.68 16.34 -22 16 C-22 15.34 -22 14.68 -22 14 C-22.66 13.67 -23.32 13.34 -24 13 C-20.3791912 10.82626954 -16.75268765 8.66222771 -13.125 6.5 C-12.09246094 5.87996094 -11.05992188 5.25992187 -9.99609375 4.62109375 C-9.00996094 4.03457031 -8.02382812 3.44804687 -7.0078125 2.84375 C-5.64100342 2.02680664 -5.64100342 2.02680664 -4.24658203 1.19335938 C-2 0 -2 0 0 0 Z " fill="#EE9116" transform="translate(108,24)"/>
<path d="M0 0 C2.04872887 1.25717453 4.04148656 2.60644236 6 4 C10.00999074 6.35118162 14.09267608 8.54633804 18.25 10.625 C20.92791314 11.96395657 23.44458366 13.4418193 26 15 C27.16484128 15.66985099 28.33162896 16.33632487 29.5 17 C30.10070313 17.34417969 30.70140625 17.68835938 31.3203125 18.04296875 C32.66607885 18.8097426 34.01935591 19.56332826 35.375 20.3125 C38.72182839 22.46403254 41.74376316 24.95241549 44.81640625 27.4765625 C46.8715907 29.10637649 46.8715907 29.10637649 49.15234375 29.5234375 C51 30 51 30 53 33 C54.97397453 34.71077793 56.35165601 35.87451407 58.9375 36.375 C62.1270363 37.34152615 63.76827341 39.59660214 66 42 C66.598125 42.556875 67.19625 43.11375 67.8125 43.6875 C69 45 69 45 69 47 C64.82123469 46.40548737 61.84553148 44.9849592 58.2109375 42.8671875 C57.10363281 42.22523437 55.99632813 41.58328125 54.85546875 40.921875 C53.99574463 40.41624023 53.99574463 40.41624023 53.11865234 39.90039062 C51.40490334 38.89258527 49.68491721 37.89541021 47.96484375 36.8984375 C41.64039148 33.21343872 35.40980739 29.41251289 29.25952148 25.44360352 C21.66014139 20.58837559 14.86256991 20.11575266 6 21 C-0.74270181 22.64170131 -5.2530744 26.21148032 -9 32 C-10.18678647 34.31063729 -11.10147258 36.55400869 -12 39 C-12.33 39 -12.66 39 -13 39 C-13.11786788 35.06275931 -13.18780174 31.12598239 -13.25 27.1875 C-13.28351562 26.08728516 -13.31703125 24.98707031 -13.3515625 23.85351562 C-13.43963817 16.38910224 -12.71857315 9.61440838 -9 3 C-5.93037514 0.26119911 -4.13787085 -0.68964514 0 0 Z " fill="#F0A831" transform="translate(29,77)"/>
<path d="M0 0 C3.79392709 -0.35292345 5.5073063 -0.34373979 8.6875 1.875 C9.450625 2.57625 10.21375 3.2775 11 4 C13.81509993 6.2773501 13.81509993 6.2773501 17 6 C18 7 19 8 20 9 C20.99 9 21.98 9 23 9 C26.62351271 10.85821165 29.17766359 13.0997647 32 16 C30.94941406 15.95359375 29.89882813 15.9071875 28.81640625 15.859375 C16.08321544 15.45543718 16.08321544 15.45543718 5.234375 21.578125 C1.74877859 25.33444734 -0.2425105 29.21572304 -2 34 C-2.33 34 -2.66 34 -3 34 C-3.08802152 30.0209757 -3.14073233 26.04220612 -3.1875 22.0625 C-3.21263672 20.94552734 -3.23777344 19.82855469 -3.26367188 18.67773438 C-3.32455582 11.75725875 -2.59692408 6.42755749 0 0 Z " fill="#F3B954" transform="translate(19,82)"/>
<path d="M0 0 C6.75 3.75 6.75 3.75 9 6 C9 6.99 9 7.98 9 9 C5.9168649 7.80100302 2.93720508 6.52299523 0 5 C0 3.35 0 1.7 0 0 Z " fill="#EE961E" transform="translate(101,123)"/>
<path d="M0 0 C4.875 2.75 4.875 2.75 6 5 C1.71 4.67 -2.58 4.34 -7 4 C-7 3.67 -7 3.34 -7 3 C-4.69 3 -2.38 3 0 3 C0 2.01 0 1.02 0 0 Z " fill="#F2B143" transform="translate(45,93)"/>
</svg>
